<svg xmlns="http://www.w3.org/2000/svg" xmlns:xlink="http://www.w3.org/1999/xlink" id="Capa_1" x="0px" y="0px" width="800px" height="864.086px" viewBox="0 173.277 800 864.086" xml:space="preserve"><path fill="#F15922" d="M699.575,663.505h-6.406l-43.237-12.945v-10.052c16.48-7.292,31.91-17.425,45.623-30.153  c28.021-26.013,47.403-61.367,55.068-100.201c19.63-6.447,33.605-25.859,33.605-48.224c0-14.177-5.525-27.383-15.116-36.839  c0.057-0.447,0.086-0.898,0.086-1.354v-91.594c0-26.827-13.317-49.897-36.552-63.306l-9.149-5.261  c-85.484-49.344-183.534-49.339-268.981-0.013l-9.229,5.281c-23.19,13.384-36.492,36.456-36.492,63.298v88.917  c-12.258,9.384-19.849,24.604-19.849,40.87c0,22.372,13.995,41.787,33.65,48.229c7.665,38.831,27.039,74.188,55.043,100.195  c15.033,13.961,32.132,24.806,50.421,32.196v8.01l-43.237,12.945h-12.374v-25.947c0-17.039-13.86-30.899-30.899-30.899H89.231  c-17.039,0-30.9,13.86-30.9,30.899v239.461c0,17.039,13.861,30.9,30.9,30.9h128.622l-4.769,27.009H101.962  c-6.03,0-10.919,4.89-10.919,10.919V989.3c0,6.031,4.889,10.919,10.919,10.919h112.634h101.585h75.37h37.266h72.451h69.713h128.594  c48.555,0,88.056-39.503,88.056-88.058V751.563C787.631,703.008,748.13,663.505,699.575,663.505L699.575,663.505z M674.935,680.841  l-41.153,68.063l-29.609-20.211l39.334-57.262L674.935,680.841z M588.977,712.247L549.896,655.3v-5.712  c11.966,2.912,24.267,4.414,36.69,4.414c14.097,0,28.036-1.939,41.51-5.674v6.972L588.977,712.247z M430.63,332.142  c0-18.828,9.32-35.006,25.536-44.364l9.229-5.283c78.548-45.344,168.646-45.344,247.196,0c0.005,0.003,0.012,0.006,0.016,0.01  l9.137,5.254c16.277,9.396,25.615,25.572,25.615,44.384v74.83c-47.111-19.438-101.481-29.653-158.388-29.653  c-56.915,0-111.271,10.214-158.344,29.646v-74.825H430.63z M742.951,428.831l-9.514,17.102c-3.07,5.533-9.198,7.968-15.242,6.07  c-40.26-12.685-83.736-19.115-129.222-19.115c-45.503,0-88.966,6.433-129.174,19.114c-6.05,1.902-12.177-0.536-15.253-6.077  l-9.511-17.097c45.317-19.425,98.251-29.669,153.936-29.669C644.646,399.159,697.594,409.401,742.951,428.831z M442.873,499.479  c-0.751-4.761-4.535-8.464-9.311-9.114c-12.987-1.77-22.781-13.992-22.781-28.434c0-7.291,2.561-14.171,6.906-19.369l7.771,13.971  c8.114,14.617,24.932,21.313,40.902,16.298c38.087-12.014,79.34-18.104,122.612-18.104c43.258,0,84.526,6.092,122.664,18.106  c3.547,1.115,7.135,1.653,10.659,1.653c12.346,0,23.92-6.582,30.229-17.944l5.681-10.212c2.698,4.558,4.183,9.933,4.183,15.603  c0,14.44-9.776,26.664-22.74,28.435c-4.773,0.651-8.557,4.356-9.308,9.114c-12.146,76.883-72.604,132.685-143.757,132.685  C515.458,632.164,455.019,576.362,442.873,499.479L442.873,499.479z M534.479,671.432l39.3,57.262l-29.574,20.205l-41.15-68.06  L534.479,671.432z M89.231,886.08c-1.789,0-3.453-0.528-4.859-1.426l98.589-98.214c3.148-3.136,4.083-7.868,2.359-11.966  c-10.591-25.196-4.953-53.957,14.364-73.274c17.373-17.374,42.817-23.536,65.784-17.01l-40.625,40.624  c-6.138,6.105-9.517,14.258-9.517,22.949s3.381,16.841,9.497,22.927c12.63,12.628,33.182,12.628,45.811,0l40.653-40.654  c6.544,22.951,0.391,48.384-16.973,65.747c-19.353,19.353-48.128,24.993-73.308,14.371c-4.087-1.72-8.808-0.805-11.95,2.324  l-73.898,73.602H89.231z M166.106,886.08l53.404-53.189c31.63,10.354,66.356,2.225,90.245-21.664  c27.836-27.836,33.95-71.308,14.869-105.714c-1.662-2.997-4.636-5.041-8.029-5.518c-3.396-0.477-6.816,0.669-9.239,3.093  l-52.163,52.162c-4.117,4.117-10.813,4.117-14.949-0.021c-1.986-1.977-3.081-4.626-3.081-7.466c0-2.839,1.094-5.49,3.1-7.485  l52.163-52.161c2.425-2.425,3.57-5.849,3.092-9.242c-0.478-3.396-2.523-6.37-5.523-8.029  c-34.422-19.064-77.909-12.927-105.751,14.915c-23.844,23.844-31.975,58.534-21.667,90.166l-82.408,82.097V637.558  c0-4.997,4.065-9.061,9.063-9.061h352.315c4.997,0,9.063,4.063,9.063,9.061v239.461c0,4.997-4.065,9.062-9.063,9.062H309.067  l-2.646-14.983c-0.922-5.216-5.455-9.021-10.753-9.021h-60.563c-5.297,0-9.832,3.805-10.753,9.021l-2.645,14.983H166.106z   M380.633,907.917v27.01h-62.939l-4.769-27.01H380.633z M295.517,934.927h-60.258l9.008-51.011h42.242L295.517,934.927z   M417.898,978.38h-26.347h-75.37H214.597H112.881v-21.614h305.017V978.38z M560.063,978.38h-58.794  c-15.404,0-27.938-12.533-27.938-27.937c0-15.406,12.533-27.938,27.938-27.938h58.794V978.38z M765.794,912.161  c0,36.514-29.706,66.219-66.219,66.219H581.9v-55.875H699c6.029,0,10.919-4.89,10.919-10.919V793.513  c0-6.031-4.89-10.919-10.919-10.919s-10.919,4.889-10.919,10.919v107.154h-117.1h-69.713c-27.445,0-49.774,22.331-49.774,49.776  c0,10.348,3.176,19.966,8.602,27.937h-20.361v-32.534c0-6.031-4.889-10.919-10.919-10.919h-26.347v-27.01h39.078  c17.037,0,30.9-13.862,30.9-30.899V685.344h7.811l51.231,84.734c1.553,2.567,4.094,4.383,7.026,5.019  c0.768,0.167,1.544,0.25,2.317,0.25c2.18,0,4.329-0.653,6.159-1.903l41.982-28.683L631,773.447c1.83,1.246,3.977,1.899,6.156,1.899  c0.773,0,1.552-0.083,2.318-0.25c2.932-0.636,5.473-2.453,7.025-5.019l51.231-84.734h1.844c36.514,0,66.219,29.706,66.219,66.219  V912.161z M520.764,483.061v14.81c0,6.031-4.889,10.919-10.918,10.919c-6.03,0-10.919-4.889-10.919-10.919v-14.81  c0-6.031,4.889-10.918,10.919-10.918C515.875,472.143,520.764,477.029,520.764,483.061z M639.102,497.87v-14.81  c0-6.031,4.889-10.918,10.919-10.918c6.029,0,10.919,4.889,10.919,10.918v14.81c0,6.031-4.89,10.919-10.919,10.919  C643.99,508.789,639.102,503.9,639.102,497.87z M585.701,610.814c-21.853,0-41.475-13.819-48.828-34.385  c-2.029-5.68,0.927-11.928,6.605-13.958c5.673-2.028,11.928,0.927,13.957,6.604c4.257,11.902,15.616,19.898,28.266,19.898  c12.679,0,24.055-7.996,28.312-19.898c2.031-5.68,8.279-8.633,13.958-6.604c5.678,2.03,8.634,8.278,6.604,13.958  C627.221,596.995,607.58,610.814,585.701,610.814z M195.545,572.091c38.061,0,74.42-11.393,105.47-32.994l68.445,14.072  c3.825,0.787,7.773-0.528,10.364-3.447c2.591-2.917,3.427-6.998,2.193-10.7l-22.206-66.659  c13.662-26.253,20.864-55.692,20.864-85.45c0-102.082-83.05-185.131-185.131-185.131c-102.106,0-185.177,83.05-185.177,185.131  C10.369,489.021,93.439,572.091,195.545,572.091L195.545,572.091z M195.545,223.62c90.041,0,163.295,73.252,163.295,163.294  c0,27.688-7.063,55.053-20.422,79.136c-1.483,2.674-1.776,5.847-0.812,8.747l17.713,53.172l-54.577-11.221  c-3.023-0.617-6.175,0.069-8.666,1.897c-28.13,20.678-61.511,31.607-96.531,31.607c-90.065,0-163.339-73.273-163.339-163.339  C32.206,296.872,105.479,223.62,195.545,223.62L195.545,223.62z M105.53,426.561l-14.436,22.867  c-2.725,4.314-2.097,9.941,1.511,13.551l27.807,27.805c3.606,3.607,9.234,4.235,13.55,1.511l22.866-14.437  c1.104,0.481,2.223,0.944,3.354,1.388l5.974,26.425c1.125,4.977,5.547,8.512,10.65,8.512h39.342c5.103,0,9.525-3.535,10.65-8.512  l5.975-26.431c1.114-0.44,2.222-0.9,3.319-1.38l22.904,14.439c4.314,2.719,9.938,2.087,13.542-1.516l27.805-27.805  c3.609-3.609,4.237-9.234,1.512-13.551l-14.448-22.886c0.486-1.115,0.945-2.229,1.381-3.339l26.4-5.967  c4.979-1.124,8.511-5.547,8.511-10.65v-39.298c0-5.103-3.534-9.525-8.511-10.65l-26.389-5.964c-0.436-1.112-0.898-2.229-1.389-3.353  l14.45-22.925c2.72-4.314,2.091-9.938-1.516-13.544l-27.805-27.805c-3.609-3.609-9.237-4.237-13.553-1.509l-22.891,14.464  c-1.109-0.487-2.22-0.95-3.328-1.389l-5.97-26.411c-1.125-4.977-5.547-8.511-10.65-8.511h-39.342c-5.103,0-9.525,3.535-10.65,8.511  l-5.969,26.403c-1.124,0.442-2.245,0.908-3.364,1.398l-22.848-14.461c-4.317-2.734-9.95-2.106-13.56,1.505l-27.808,27.805  c-3.605,3.606-4.236,9.228-1.516,13.544l14.439,22.906c-0.486,1.112-0.95,2.236-1.394,3.367l-26.375,5.969  c-4.977,1.126-8.508,5.548-8.508,10.65v39.298c0,5.102,3.533,9.523,8.508,10.65l26.383,5.97  C104.586,424.336,105.048,425.455,105.53,426.561L105.53,426.561z M91.087,376.009l23.719-5.367  c3.769-0.853,6.806-3.636,7.988-7.314c1.3-4.055,2.942-8.016,4.878-11.771c1.772-3.438,1.594-7.553-0.469-10.825l-12.987-20.605  l15.461-15.462l20.556,13.011c3.272,2.072,7.4,2.254,10.844,0.478c3.886-2.003,7.825-3.638,11.709-4.858  c3.709-1.167,6.519-4.217,7.375-8.009l5.37-23.758h21.889l5.37,23.758c0.856,3.792,3.666,6.842,7.376,8.009  c3.81,1.197,7.733,2.831,11.663,4.858c3.441,1.773,7.563,1.594,10.837-0.474l20.602-13.019l15.466,15.467l-12.987,20.604  c-2.045,3.244-2.239,7.323-0.51,10.747c2.078,4.112,3.664,7.959,4.846,11.756c1.159,3.724,4.215,6.547,8.019,7.406l23.758,5.371  v21.847l-23.758,5.37c-3.794,0.857-6.844,3.667-8.009,7.376c-1.202,3.822-2.834,7.789-4.855,11.789  c-1.729,3.426-1.534,7.508,0.513,10.752l12.979,20.56l-15.469,15.469l-20.604-12.987c-3.271-2.062-7.388-2.238-10.823-0.469  c-3.744,1.93-7.699,3.573-11.755,4.887c-3.667,1.188-6.438,4.223-7.286,7.98l-5.37,23.759h-21.889l-5.37-23.759  c-0.85-3.758-3.619-6.793-7.286-7.98c-4.136-1.339-8.106-2.982-11.801-4.887c-3.439-1.775-7.56-1.594-10.83,0.473l-20.559,12.979  l-15.464-15.464l12.98-20.56c2.065-3.271,2.245-7.391,0.473-10.83c-1.903-3.695-3.548-7.665-4.887-11.803  c-1.188-3.666-4.219-6.435-7.978-7.286l-23.719-5.367v-21.853H91.087z M196.474,448.05c33.686,0,61.09-27.427,61.09-61.137  c0-33.686-27.405-61.092-61.09-61.092c-33.711,0-61.136,27.406-61.136,61.092C135.337,420.625,162.763,448.05,196.474,448.05  L196.474,448.05z M196.474,347.659c21.644,0,39.254,17.608,39.254,39.253c0,21.67-17.609,39.298-39.254,39.298  c-21.67,0-39.3-17.63-39.3-39.298C157.173,365.267,174.805,347.659,196.474,347.659L196.474,347.659z"></path></svg>