<svg xmlns="http://www.w3.org/2000/svg" xmlns:xlink="http://www.w3.org/1999/xlink" id="Capa_1" x="0px" y="0px" width="800px" height="864.086px" viewBox="0 173.277 800 864.086" xml:space="preserve"><path fill="#F15922" d="M186.908,410.889c3.883,5.535,15.745,7.331,32.626-1.793c45.881-24.815,101.095-67.911,145.648-82.76  c8.243-2.736,16.911-4.684,25.843-5.779c7.104-18.721,28.254-29.983,48.453-23.886l65.293,19.667  c5.454,1.653,10.26,1.491,15.604-0.496c6.215-2.322,13.159,0.84,15.491,7.067c2.323,6.203-0.84,13.148-7.066,15.482  c-10.302,3.841-20.44,4.188-30.983,1.004l-65.28-19.688c-9.571-2.883-18.897,4.387-19.607,12.39l-0.479,3.132  c-1.946,6.427,1.715,13.251,8.152,15.187l79.293,23.895c18.544,5.597,32.432-1.37,50.002-10.178  c24.108-12.097,31.531-13.566,57.374-19.627v-90.051c-36.337,0.295-69.609-0.204-102.187-4.906  c-25.131-3.619-52.064-13.102-75.826-11.164c-26.4,2.149-59.745,16.779-89.158,39.146L191.521,390.48  C182.519,397.313,183.907,406.64,186.908,410.889L186.908,410.889z M631.338,359.103c0,0.507,0.466,0.974,0.983,0.974h39.053  c0.507,0,0.973-0.467,0.973-0.974V228.943c0-0.506-0.466-0.974-0.973-0.974h-39.053c-0.518,0-0.983,0.466-0.983,0.974V359.103z   M167.21,424.737c-10.352-14.752-9.55-38.75,9.743-53.42l148.579-112.942c32.931-25.033,70.97-41.477,101.792-43.98  c28.652-2.322,54.354,7.463,81.197,11.346c31.024,4.471,63.325,4.937,98.748,4.653v-1.451c0-13.809,11.233-25.042,25.053-25.042  h39.053c13.799,0,25.041,11.233,25.041,25.042V359.1c0,13.809-11.242,25.042-25.041,25.042h-39.053  c-10.382,0-19.304-6.358-23.107-15.37c-22.173,5.3-27.249,6.187-48.521,16.861c-18.767,9.418-40.026,20.075-67.756,11.73  l-79.293-23.908c-13.443-4.056-22.812-15.259-25.204-28.204c-31.55,5.456-67.15,29.076-100.97,50.712  c-18.553,11.872-37.745,24.15-56.491,34.288c-12.399,6.723-23.359,9.408-32.666,9.408  C183.593,439.662,172.968,432.93,167.21,424.737L167.21,424.737z M619.404,791.111c-3.904-5.535-15.756-7.34-32.637,1.796  c-46.002,24.896-101.04,67.855-145.638,82.759c-8.264,2.758-16.922,4.685-25.864,5.77c-7.133,18.898-28.425,29.952-48.453,23.896  l-65.281-19.667c-5.454-1.662-10.27-1.501-15.595,0.486c-6.234,2.353-13.16-0.811-15.501-7.036  c-2.332-6.226,0.831-13.17,7.056-15.502c10.302-3.853,20.439-4.187,30.983-1.014l65.281,19.688  c9.642,2.914,18.962-4.493,19.607-12.39l0.486-3.122c1.937-6.438-1.713-13.242-8.15-15.178l-79.272-23.906  c-18.583-5.606-32.462,1.356-50.033,10.188c-24.135,12.11-31.518,13.536-57.374,19.619v90.04  c36.357-0.284,69.621,0.212,102.187,4.916c25.129,3.604,52.042,13.102,75.826,11.162c26.411-2.148,59.745-16.778,89.157-39.146  l148.589-112.952C623.784,804.687,622.387,795.36,619.404,791.111L619.404,791.111z M174.956,842.897  c0-0.517-0.465-0.974-0.973-0.974H134.93c-0.518,0-0.984,0.457-0.984,0.974v130.157c0,0.508,0.466,0.975,0.984,0.975h39.052  c0.505,0,0.973-0.467,0.973-0.975V842.897z M639.095,777.272c10.343,14.73,9.542,38.75-9.742,53.399l-148.59,112.952  c-34.618,26.32-76.407,44.335-110.477,44.335c-25.537,0-48.476-8.23-72.51-11.699c-31.004-4.462-63.324-4.948-98.748-4.634v1.432  c0,13.808-11.233,25.042-25.042,25.042h-39.052c-13.799,0-25.042-11.234-25.042-25.042V842.9c0-13.81,11.244-25.043,25.042-25.043  h39.052c10.381,0,19.293,6.347,23.095,15.37c22.212-5.294,27.206-6.167,48.523-16.86c18.776-9.42,40.026-20.094,67.776-11.722  l79.272,23.896c13.444,4.057,22.812,15.258,25.205,28.204c31.514-5.45,67.199-29.075,100.968-50.701  c18.555-11.893,37.756-24.161,56.492-34.299C607.352,754.409,629.685,763.879,639.095,777.272L639.095,777.272z M109.115,600.994  c0-15.318-12.47-27.79-27.799-27.79c-15.309,0-27.779,12.47-27.779,27.79c0,15.33,12.47,27.79,27.779,27.79  C96.646,628.784,109.115,616.324,109.115,600.994z M81.316,652.854c24.464,0,44.995-17.023,50.438-39.825h100.777  c6.641,0,12.025-5.394,12.025-12.034c0-87.435,71.142-158.574,158.605-158.574c35.667,0,69.579,11.708,97.309,33.335l-14.396,0.435  c-6.641,0.193-11.873,5.749-11.679,12.391c0.213,6.64,5.749,11.8,12.391,11.659l48.754-1.44c8.055-0.237,13.565-8.166,11.102-15.744  l-15.046-46.393c-2.038-6.327-8.831-9.793-15.147-7.736c-6.327,2.04-9.793,8.82-7.755,15.147l3.327,10.229  c-31.319-23.337-69.155-35.95-108.856-35.95c-96.691,0-176.065,75.492-182.29,170.621h-89.118  c-5.445-22.803-25.974-39.825-50.438-39.825c-28.581,0-51.849,23.259-51.849,51.847C29.469,629.585,52.736,652.854,81.316,652.854  L81.316,652.854z M744.463,600.994c0-15.318-12.461-27.79-27.79-27.79c-15.31,0-27.779,12.47-27.779,27.79  c0,15.33,12.47,27.79,27.779,27.79C732.002,628.784,744.463,616.324,744.463,600.994L744.463,600.994z M768.531,600.994  c0-28.591-23.258-51.848-51.858-51.848c-24.443,0-44.983,17.023-50.419,39.825h-92.483c-6.641,0-12.035,5.384-12.035,12.025  c0,87.444-71.14,158.587-158.574,158.587c-37.36,0-72.765-12.836-101.161-36.438l14.6-0.435c6.641-0.193,11.872-5.737,11.678-12.378  c-0.212-6.651-5.719-11.873-12.39-11.67l-48.776,1.449c-7.98,0.235-13.556,8.124-11.082,15.735l15.045,46.404  c2.038,6.315,8.832,9.784,15.147,7.736c6.316-2.049,9.783-8.831,7.746-15.147l-3.174-9.804  c31.978,25.042,71.142,38.616,112.365,38.616c96.659,0,176.033-75.491,182.259-170.62h80.834  c5.433,22.802,25.975,39.824,50.419,39.824C745.273,652.854,768.531,629.585,768.531,600.994L768.531,600.994z M457.713,574.585  h-12.59c-5.495,31.605-38.564,41.313-56.842,41.857h-18.925l79.638,79.638l-16.416,16.438l-95.821-95.793l0.267-0.272h-0.267v-0.034  v-23.216v-0.034h51.171v0.034c2.77-0.113,26.655-1.601,33.161-18.618h-94.062l13.226-24.555h78.168  c-0.454-0.59-0.852-1.215-1.374-1.76c-6.55-6.596-18.737-9.195-31.305-10.229h-58.426l12.426-24.556h126.779l-12.465,24.556h-15.576  c2.43,3.622,4.144,7.652,5.381,11.988h27.11L457.713,574.585z"></path></svg>