<svg xmlns="http://www.w3.org/2000/svg" xmlns:xlink="http://www.w3.org/1999/xlink" id="Capa_1" x="0px" y="0px" width="800px" height="864.086px" viewBox="0 173.277 800 864.086" xml:space="preserve"><g>	<path fill="#F15922" d="M179.182,540.764c0,31.548,25.667,57.213,57.212,57.213c31.546,0,57.213-25.667,57.213-57.213   c-0.146-3.291,0.708-8.7-1.683-12.36l-40.743-68.235c16.371-16.43,46.798-37.927,95.64-40.981v165.829l-58.218,52.263   c-6.12,5.499-9.631,13.37-9.631,21.598c0,16.004,13.021,29.024,29.025,29.024h101.436c16.005,0,29.024-13.021,29.024-29.024   c0-8.228-3.511-16.099-9.634-21.598l-58.213-52.263V419.188c48.845,3.058,79.27,24.553,95.638,40.979l-40.742,68.235   c-2.146,3.128-1.645,7.857-1.684,12.36c0,31.548,25.669,57.213,57.214,57.213c31.546,0,57.212-25.667,57.212-57.213   c-0.144-3.287,0.708-8.704-1.682-12.362l-45.32-75.899c-17.64-21.409-54.604-52.93-120.638-57.138v-17.219   c0-6.569-5.324-11.895-11.894-11.895c-6.57,0-11.894,5.326-11.894,11.895v17.217c-65.51,3.929-102.982,35.746-120.64,57.139   l-45.318,75.899C178.718,531.531,179.222,536.261,179.182,540.764L179.182,540.764z M505.403,522.607h-48.731l24.365-40.805   L505.403,522.607z M481.038,574.19c-16.513,0-30.267-12.034-32.951-27.794h65.903C511.306,562.155,497.551,574.19,481.038,574.19   L481.038,574.19z M414.67,658.877c0,2.887-2.35,5.234-5.236,5.234H307.998c-2.887,0-5.237-2.348-5.237-5.234   c0-1.485,0.633-2.906,1.738-3.897l54.218-48.673l54.215,48.673C414.036,655.971,414.67,657.393,414.67,658.877z M236.395,481.802   l24.364,40.804H212.03L236.395,481.802z M236.395,574.19c-16.512,0-30.267-12.034-32.95-27.794h65.901   C266.661,562.155,252.906,574.19,236.395,574.19L236.395,574.19z"></path>	<path fill="#F15922" d="M612.233,592.221c-1.07,6.482,3.316,12.603,9.798,13.673c0.656,0.107,1.308,0.16,1.951,0.16   c5.716,0,10.759-4.133,11.721-9.958c2.599-15.728,3.913-31.797,3.913-47.765V427.543c50.206-8.529,88.563-52.31,88.563-104.906   c0-58.69-47.746-106.438-106.436-106.438c-43.032,0-80.155,25.685-96.915,62.517c-50.366-8.361-85.247-28.844-137.089-67.127   c-17.352-12.807-40.682-12.807-58.055,0.001c-75.26,55.561-117.966,77.467-239.251,70.151c-3.26-0.204-6.481,0.964-8.87,3.213   c-2.387,2.247-3.74,5.381-3.74,8.659v254.717c0,47.762,11.802,94.044,33.24,135.222c-12.967,10.617-21.255,27.513-17.567,46.449   l19.091,96.948c2.103,10.698,2.265,21.599,0.483,32.385l-9.215,55.43c-13.881,2.593-24.427,14.777-24.427,29.398v39.921   c0,16.502,13.427,29.929,29.929,29.929h218.999c16.503,0,29.929-13.427,29.929-29.929v-39.921c0-6.854-2.341-13.156-6.229-18.207   c3.495-3.779,8.041-6.483,13.218-7.71l147.829-35.023c25.144-5.957,47.479-19.348,64.591-38.726l67.495-76.443   c13.842-15.662,14.991-38.387,4.195-55.239c17.452-28.677-1.455-70.746-36.668-75.255c-4.149-1.386-11.78,0.538-14.695,7.099   c-15.655,40.864-41.158,77.262-73.735,105.955c-12.177,10.723-27.213,21.739-42.549,30.673l-123.022,71.457l-123.004-71.457   c-82.714-48.049-134.098-137.313-134.098-232.958V306.155c113.873,5.574,165.179-17.806,242.194-75.422   c8.92-6.575,20.902-6.578,29.807-0.006c52.679,38.9,90.808,61.343,143.796,70.839c-1.296,6.426-1.995,13.063-2.071,19.846   c-60.21-9.188-93.649-33.081-138.702-65.303c-3.602-2.576-7.272-5.2-11.032-7.872c-4.125-2.933-9.653-2.933-13.78,0   c-3.784,2.688-7.478,5.33-11.1,7.92c-59.461,42.528-98.773,70.645-207.504,69.412c-3.155-0.046-6.238,1.2-8.496,3.436   c-2.258,2.236-3.531,5.281-3.531,8.458v40.684c0,6.568,5.323,11.894,11.895,11.894c6.57,0,11.893-5.326,11.893-11.894v-28.776   c109.471-1.05,152.537-32.905,213.733-76.833c48.071,34.45,88.116,63.995,159.162,73.261c6.891,30.911,27.249,56.785,54.589,71.131   v131.398c0,80.242-43.11,155.14-112.501,195.462l-101.25,58.799l-101.23-58.796c-69.395-40.325-112.503-115.224-112.503-195.465   v-113.87c0-6.569-5.323-11.895-11.894-11.895c-6.57,0-11.894,5.326-11.894,11.895v113.87c0,88.687,47.645,171.467,124.341,216.035   l107.208,62.267c1.845,1.073,3.911,1.608,5.974,1.608s4.126-0.535,5.974-1.607l107.226-62.268   c76.694-44.567,124.338-127.346,124.338-216.033V425.967c6.327,1.563,12.869,2.566,19.582,2.935v119.43   C615.828,563.004,614.617,577.771,612.233,592.221L612.233,592.221z M334.496,984.087c0,3.387-2.755,6.141-6.141,6.141h-219   c-3.386,0-6.14-2.754-6.14-6.141v-39.921c0-3.386,2.754-6.14,6.14-6.14h219c3.386,0,6.141,2.754,6.141,6.14V984.087z    M630.827,696.343c-9.361-3.747-16.247-5.917-29.237-3.677c5.419-9.56,10.298-19.446,14.624-29.602   C626.475,666.479,635.966,684.014,630.827,696.343L630.827,696.343z M223.757,801.861l128.978,74.926   c1.848,1.072,3.911,1.609,5.976,1.609c2.063,0,4.128-0.536,5.974-1.609l128.997-74.926c15.438-9.042,31.268-20.142,46.076-33.178   l56.726-47.943c6.975-5.734,19.69-7.807,29.127,0.486c8.962,8.089,9.749,22.03,1.75,31.078l-67.499,76.448   c-13.84,15.676-31.906,26.507-52.242,31.325l-147.828,35.022c-11.846,2.805-21.991,9.647-28.958,19.263   c-3.709-0.373-199.385,0.005-202.775-0.126l8.481-51.014c2.248-13.614,2.043-27.361-0.611-40.864l-19.089-96.942   c-1.164-5.752,0.246-14.63,6.272-20.862C147.982,744.053,182.229,777.736,223.757,801.861L223.757,801.861z M539.09,322.637   c0-45.574,37.076-82.649,82.65-82.649c45.571,0,82.648,37.076,82.648,82.649c0,45.573-37.077,82.65-82.648,82.65   C576.166,405.286,539.09,368.209,539.09,322.637z"></path>	<path fill="#F15922" d="M668.626,307.711c4.646-4.645,4.646-12.177,0-16.82c-4.645-4.645-12.175-4.645-16.821,0l-38.26,38.26   l-21.867-21.868c-4.646-4.645-12.176-4.645-16.82,0c-4.646,4.645-4.646,12.176,0,16.819l30.277,30.278   c2.323,2.322,5.368,3.484,8.412,3.484c3.043,0,6.088-1.161,8.412-3.484L668.626,307.711z"></path></g></svg>