<svg clip-rule="evenodd" fill-rule="evenodd" height="512" image-rendering="optimizeQuality" shape-rendering="geometricPrecision" text-rendering="geometricPrecision" viewBox="0 0 1707 1707" width="512" xmlns="http://www.w3.org/2000/svg"><g id="Layer_x0020_1"><g id="_327555144"><g><g><path d="m801 1376h-657c-14 0-25-11-25-25v-719c0-14 11-25 25-25s25 11 25 25v695h609v-1028c0-14 11-24 25-24s25 11 25 24v1052c-2 14-13 25-27 25z"/></g><g><path d="m183 784c-12 0-25-1-40-3-14-1-24-14-21-26 3-13 14-22 26-21 20 3 34 3 47 1 110-5 181-76 221-134 47-67 118-112 206-136 41-11 91-18 129-17l54 3c14 2 24 13 23 25-2 14-13 24-25 22l-53-2c-32-2-78 5-114 15-79 21-138 60-178 116-66 95-157 150-257 156-8 1-14 1-18 1zm0-123c-15 0-31-2-44-6-13-3-21-17-18-29 4-13 16-21 29-18 12 3 29 4 43 3 44-4 84-31 119-82 64-92 161-155 281-186 53-14 115-21 163-19l47 2c14 2 23 13 22 27s-13 23-26 22l-46-3c-43-1-100 6-149 17-108 30-194 87-252 169-43 62-96 97-155 103-4 0-8 0-14 0z"/></g><g><path d="m266 1376c-14 0-25-11-25-25v-603c0-14 11-25 25-25s25 11 25 25v604c0 13-11 24-25 24z"/></g><g><path d="m370 1376c-14 0-25-11-25-25v-663c0-14 11-25 25-25s25 11 25 25v664c0 13-11 24-25 24z"/></g><g><path d="m473 1376c-14 0-25-11-25-25v-780c0-14 11-25 25-25s25 11 25 25v781c0 13-11 24-25 24z"/></g><g><path d="m577 1376c-14 0-25-11-25-25v-846c0-14 11-25 25-25s25 11 25 25v846c0 14-11 25-25 25z"/></g><g><path d="m679 1376c-14 0-25-11-25-25v-873c0-14 11-25 25-25s25 11 25 25v873c0 14-11 25-25 25z"/></g><g><path d="m1562 1376h-1l-657-42c-13-1-22-11-22-23v-1012c0-14 11-24 25-24s25 11 25 24v988l608 38v-693c0-14 11-25 25-25s25 11 25 25v719c0 7-3 13-8 18-8 4-14 7-20 7z"/></g><g><path d="m1524 784c-6 0-10 0-14 0-101-6-193-60-257-155-40-57-100-96-179-117-36-9-81-16-115-15l-52 3c-13 1-25-10-25-22-2-14 9-25 22-25l53-3c38-2 88 5 129 17 87 22 159 69 206 134 40 58 111 129 221 134 13 2 27 0 47-1 14-1 25 8 26 21 1 14-8 25-21 26-16 3-29 3-41 3zm-2-123c-4 0-8 0-12 0-60-6-113-41-155-103-59-82-143-139-254-166-49-13-106-20-149-17l-45 3c-14 1-25-10-27-22-1-14 10-25 23-27l45-3c49-1 111 6 164 19 121 30 218 95 281 185 35 50 75 78 121 82 10 1 26 0 43-3 12-2 26 6 29 18 3 13-5 27-18 29-14 3-30 5-46 5z"/></g><g><path d="m1440 1369c-13 0-24-11-24-25v-596c0-14 11-25 24-25 14 0 25 11 25 25v596c-1 14-12 25-25 25z"/></g><g><path d="m1336 1362c-13 0-24-11-24-25v-649c0-14 11-25 24-25 14 0 25 11 25 25v651c-1 12-11 23-25 23z"/></g><g><path d="m1234 1355c-14 0-25-11-25-25v-759c0-14 11-25 25-25s25 11 25 25v761c-2 12-13 23-25 23z"/></g><g><path d="m1130 1348c-14 0-25-11-25-25v-818c0-14 11-25 25-25s25 11 25 25v820c-2 12-11 23-25 23z"/></g><g><path d="m1027 1343c-14 0-25-11-25-25v-840c0-14 11-25 25-25s25 11 25 25v840c-1 14-12 25-25 25z"/></g><g><path d="m144 1472h-107c-13 0-25-11-25-25v-943c0-14 12-25 25-25h107c14 0 25 11 25 25v943c0 14-11 25-25 25zm-82-49h59v-894h-59z"/></g><g><path d="m1669 1476h-107c-13 0-24-11-24-25v-943c0-14 11-25 24-25h107c14 0 25 11 25 25v943c-1 14-12 25-25 25zm-83-49h58v-894h-58z"/></g><g><path d="m91 529c-13 0-24-11-24-25v-112c0-14 11-25 24-25 14 0 25 11 25 25v113c0 13-11 24-25 24z"/></g><g><path d="m1615 533c-14 0-25-11-25-25v-114c0-13 11-25 25-25s25 12 25 25v114c-1 14-12 25-25 25z"/></g><g><path d="m91 414c-49 0-91-40-91-92 0-50 40-91 91-91 50 0 92 40 92 91 0 52-42 92-92 92zm0-133c-23 0-42 19-42 43 0 23 19 43 42 43 24 0 43-20 43-43 0-24-19-43-43-43z"/></g><g><path d="m1615 419c-50 0-91-40-91-90 0-48 40-88 91-88s92 40 92 88c-2 50-42 90-92 90zm0-130c-23 0-43 18-43 40 0 24 18 42 43 42 24 0 43-18 43-42-1-22-19-40-43-40z"/></g></g></g></g></svg>