<svg id="Layer_1" enable-background="new 0 0 65 65" viewBox="0 0 65 65" xmlns="http://www.w3.org/2000/svg"><g><g><path d="m59.7 23.3-8.7 1.4c-3.1-7-.8-3.6-9.4-13.1-.1-.1-.2-.2-.3-.2l-6.7-3.3c-.9-.5-2.1-.5-3-.2l-10.4 3.1c-2.2.7-3.4 3-2.8 5.1.7 2.2 3 3.4 5.1 2.8l8.8-2.7 1.5.7c-2.8 2.4-9.1 8-9.2 8.1-1.9 1.6-2.5 4.1-1.7 6.7.2.6 4.9 11.2 5 11.3h-9.7c-2.3 0-4.1 1.9-4.1 4.1 0 2.3 1.9 4.1 4.1 4.1h4.1l-3.3 3.9c-1.5 1.7-1.3 4.3.4 5.8s4.4 1.3 5.8-.4l7.9-9.2h1.1c3 0 5-3.1 3.8-5.8l-5-11.3c1.9-1.6 7.2-6.3 9.4-8.3l2.2 5.1c.7 1.5 2.1 2.5 3.8 2.5.6 0 .1 0 12.4-1.9 2.3-.4 3.8-2.5 3.4-4.7-.1-2.4-2.2-3.9-4.5-3.6zm-35.9 35.9c-.8.9-2.1 1-3 .2s-1-2.1-.2-3l4.4-5.1h5.6zm36.9-29.7c-11.8 1.9-11.7 1.9-12.2 1.9-.8 0-1.6-.5-1.9-1.3l-2.8-6.4c-.3-.6-1.1-.7-1.6-.3s-10.4 9.2-10.9 9.6c-.4.3-.5.8-.3 1.2l5.3 12c.6 1.4-.4 3-1.9 3h-16.2c-1.2 0-2.1-1-2.1-2.1 0-1.2 1-2.1 2.1-2.1h11.2c.7 0 1.2-.7.9-1.4-.9-2-4.6-10.5-5.5-12.6s0 0 0-.1c-.5-1.8 0-3.3 1.2-4.4.1-.1 9-8 10.3-9.1.5-.5.4-1.3-.2-1.6l-3.2-1.6c-.2-.1-.5-.1-.7-.1l-9.2 2.9c-1.1.3-2.3-.3-2.7-1.4-.3-1.1.3-2.3 1.4-2.7l10.4-3.2c.5-.2 1.1-.1 1.5.1l6.5 3.2 6.7 7.4 2.5 5.7c.2.4.6.7 1.1.6l9.4-1.5c1.2-.2 2.3.6 2.4 1.8.5 1.2-.3 2.3-1.5 2.5z"/></g><g><path d="m52.7 16.5c3.7 0 6.7-3 6.7-6.7s-3-6.7-6.7-6.7-6.7 3-6.7 6.7 3 6.7 6.7 6.7zm0-11.4c2.6 0 4.7 2.1 4.7 4.7s-2.1 4.7-4.7 4.7-4.7-2.1-4.7-4.7 2.1-4.7 4.7-4.7z"/></g><g><path d="m3.6 27.7h12.3c.6 0 1-.4 1-1s-.4-1-1-1h-12.3c-.6 0-1 .4-1 1s.4 1 1 1z"/></g><g><path d="m9.6 32h-8.1c-.6 0-1 .4-1 1s.4 1 1 1h8.1c.6 0 1-.4 1-1s-.4-1-1-1z"/></g><g><path d="m5.4 38.3h-3.9c-.6 0-1 .4-1 1s.4 1 1 1h3.9c.6 0 1-.4 1-1s-.4-1-1-1z"/></g></g></svg>