<svg xmlns="http://www.w3.org/2000/svg" xmlns:xlink="http://www.w3.org/1999/xlink" id="Layer_3" x="0px" y="0px" width="512px" height="512px" viewBox="0 0 512 512" xml:space="preserve"><g>	<g>		<path fill="#F15922" d="M89.819,18.599c-26.178,0-47.48,21.295-47.48,47.48c0,26.186,21.303,47.48,47.48,47.48    c26.177,0,47.48-21.295,47.48-47.48C137.299,39.894,115.996,18.599,89.819,18.599z M89.819,97.732    c-17.458,0-31.653-14.197-31.653-31.654s14.196-31.653,31.653-31.653c17.457,0,31.653,14.197,31.653,31.653    S107.276,97.732,89.819,97.732z"></path>	</g></g><g>	<g>		<path fill="#F15922" d="M121.488,81.906h-0.198c-2.477,0-4.819,1.163-6.315,3.142c-6.085,8.063-15.256,12.685-25.156,12.685    s-19.071-4.621-25.156-12.686c-1.496-1.978-4.036-3.142-6.513-3.142c-21.81,0.001-39.552,17.742-39.552,39.552v31.669    c0,4.368,3.545,7.913,7.913,7.913h126.614c4.368,0,7.913-3.544,7.913-7.913v-31.669C161.039,99.647,143.297,81.906,121.488,81.906    z M145.212,145.212H34.425v-23.756c0-11.91,8.815-21.794,20.417-23.471c9.005,9.948,21.532,15.574,34.977,15.574    c13.453,0,25.987-5.634,34.993-15.597c11.514,1.622,20.4,11.545,20.4,23.495V145.212z"></path>	</g></g><g>	<g>		<path fill="#F15922" d="M422.181,18.599c-26.177,0-47.48,21.295-47.48,47.48c0,26.186,21.304,47.48,47.48,47.48    c26.178,0,47.48-21.295,47.48-47.48C469.661,39.894,448.358,18.599,422.181,18.599z M422.181,97.732    c-17.457,0-31.653-14.197-31.653-31.654s14.197-31.653,31.653-31.653c17.457,0,31.653,14.197,31.653,31.653    S439.638,97.732,422.181,97.732z"></path>	</g></g><g>	<g>		<path fill="#F15922" d="M453.85,81.906h-0.197c-2.477,0-4.819,1.163-6.315,3.142c-6.085,8.063-15.257,12.685-25.157,12.685    c-9.899,0-19.071-4.621-25.156-12.685c-1.496-1.979-4.035-3.142-6.513-3.142c-21.81,0-39.552,17.742-39.552,39.551v31.669    c0,4.368,3.546,7.914,7.913,7.914h126.614c4.368,0,7.913-3.545,7.913-7.914v-31.669C493.401,99.647,475.659,81.906,453.85,81.906z     M477.574,145.212H366.787v-23.756c0-11.91,8.815-21.794,20.417-23.471c9.005,9.946,21.532,15.574,34.977,15.574    c13.453,0,25.987-5.634,34.992-15.597c11.515,1.622,20.401,11.545,20.401,23.495V145.212z"></path>	</g></g><g>	<g>		<path fill="#F15922" d="M89.819,350.961c-26.178,0-47.48,21.295-47.48,47.479c0,26.186,21.303,47.48,47.48,47.48    c26.177,0,47.48-21.295,47.48-47.48C137.299,372.256,115.996,350.961,89.819,350.961z M89.819,430.094    c-17.458,0-31.653-14.196-31.653-31.653s14.197-31.653,31.653-31.653s31.653,14.197,31.653,31.653    C121.472,415.898,107.276,430.094,89.819,430.094z"></path>	</g></g><g>	<g>		<path fill="#F15922" d="M121.488,414.268h-0.198c-2.477,0-4.819,1.163-6.315,3.143c-6.085,8.063-15.256,12.685-25.157,12.685    c-9.899,0-19.071-4.62-25.156-12.685c-1.496-1.979-4.036-3.143-6.513-3.143c-21.81,0-39.552,17.742-39.552,39.552v31.669    c0.001,4.368,3.546,7.913,7.914,7.913h126.614c4.368,0,7.913-3.545,7.913-7.913v-31.669    C161.039,432.009,143.297,414.268,121.488,414.268z M145.212,477.574H34.425v-23.756c0-11.91,8.815-21.794,20.417-23.471    c9.005,9.947,21.532,15.573,34.977,15.573c13.453,0,25.987-5.635,34.993-15.597c11.514,1.622,20.4,11.546,20.4,23.494V477.574z"></path>	</g></g><g>	<g>		<path fill="#F15922" d="M422.181,350.961c-26.177,0-47.48,21.295-47.48,47.479c0,26.186,21.304,47.48,47.48,47.48    c26.178,0,47.48-21.295,47.48-47.48C469.661,372.256,448.358,350.961,422.181,350.961z M422.181,430.094    c-17.457,0-31.653-14.196-31.653-31.653s14.197-31.653,31.653-31.653c17.457,0,31.653,14.197,31.653,31.653    C453.834,415.898,439.638,430.094,422.181,430.094z"></path>	</g></g><g>	<g>		<path fill="#F15922" d="M453.85,414.268h-0.197c-2.477,0-4.819,1.163-6.315,3.143c-6.085,8.063-15.257,12.685-25.157,12.685    c-9.899,0-19.071-4.62-25.156-12.685c-1.496-1.979-4.035-3.143-6.513-3.143c-21.81,0-39.552,17.742-39.552,39.552v31.669    c0,4.368,3.546,7.913,7.913,7.913h126.614c4.368,0,7.913-3.545,7.913-7.913v-31.669    C493.401,432.009,475.659,414.268,453.85,414.268z M477.574,477.574H366.787v-23.756c0-11.91,8.815-21.794,20.417-23.471    c9.005,9.946,21.532,15.573,34.977,15.573c13.453,0,25.987-5.635,34.992-15.597c11.515,1.622,20.401,11.546,20.401,23.494V477.574    z"></path>	</g></g><g>	<g>		<path fill="#F15922" d="M387.133,58.118c-6.813-4.519-13.92-8.728-21.12-12.504c-3.87-2.026-8.65-0.538-10.684,3.333    c-2.026,3.87-0.53,8.657,3.339,10.683c6.727,3.53,13.358,7.454,19.713,11.673c1.346,0.894,2.865,1.321,4.368,1.321    c2.556,0,5.072-1.243,6.601-3.537C391.762,65.445,390.772,60.532,387.133,58.118z"></path>	</g></g><g>	<g>		<g>			<path fill="#F15922" d="M323.707,28.411c-14.569-4.329-29.651-7.265-44.83-8.721c-4.336-0.388-8.222,2.777-8.633,7.122     c-0.419,4.345,2.77,8.214,7.122,8.633c14.165,1.362,28.242,4.099,41.829,8.135c0.753,0.222,1.512,0.332,2.256,0.332     c3.402,0,6.553-2.231,7.588-5.658C330.282,34.061,327.893,29.653,323.707,28.411z"></path>			<path fill="#F15922" d="M233.218,19.683c-15.178,1.448-30.261,4.376-44.837,8.705c-4.186,1.243-6.576,5.65-5.333,9.836     c1.021,3.442,4.17,5.666,7.581,5.666c0.744,0,1.503-0.11,2.264-0.332c13.595-4.036,27.666-6.774,41.83-8.119     c4.345-0.412,7.534-4.273,7.122-8.625S237.57,19.279,233.218,19.683z"></path>		</g>	</g></g><g>	<g>		<path fill="#F15922" d="M156.671,48.946c-2.026-3.87-6.813-5.357-10.683-3.333c-7.201,3.774-14.307,7.985-21.121,12.504    c-3.64,2.414-4.637,7.328-2.216,10.967c1.519,2.295,4.036,3.537,6.6,3.537c1.503,0,3.023-0.427,4.368-1.321    c6.354-4.226,12.994-8.15,19.713-11.672C157.209,57.604,158.697,52.816,156.671,48.946z"></path>	</g></g><g>	<g>		<path fill="#F15922" d="M467.406,345.706c-3.957-1.859-8.666-0.135-10.518,3.823c-3.213,6.884-6.829,13.689-10.746,20.226    c-2.24,3.751-1.028,8.61,2.722,10.857c1.274,0.769,2.675,1.132,4.06,1.132c2.69,0,5.318-1.377,6.782-3.846    c4.202-7.003,8.08-14.292,11.522-21.675C473.079,352.267,471.362,347.559,467.406,345.706z"></path>	</g></g><g>	<g>		<path fill="#F15922" d="M492.325,233.36c-0.411-4.352-4.258-7.502-8.625-7.131c-4.352,0.412-7.541,4.273-7.13,8.625    c0.672,6.988,1.005,14.101,1.005,21.145c0,12.582-1.068,25.204-3.165,37.519c-0.728,4.304,2.168,8.396,6.473,9.131    c0.443,0.079,0.895,0.11,1.338,0.11c3.782,0,7.13-2.722,7.786-6.575c2.255-13.191,3.395-26.707,3.395-40.184    C493.401,248.459,493.037,240.838,492.325,233.36z"></path>	</g></g><g>	<g>		<path fill="#F15922" d="M478.08,172.047c-2.88-7.605-6.204-15.169-9.876-22.474c-1.971-3.901-6.726-5.484-10.628-3.514    c-3.908,1.962-5.483,6.719-3.521,10.627c3.427,6.813,6.528,13.872,9.219,20.97c1.195,3.158,4.201,5.113,7.399,5.113    c0.934,0,1.875-0.166,2.809-0.515C477.574,180.704,479.632,176.139,478.08,172.047z"></path>	</g></g><g>	<g>		<path fill="#F15922" d="M54.43,146.059c-3.909-1.97-8.665-0.388-10.627,3.514c-3.671,7.304-6.995,14.869-9.876,22.474    c-1.551,4.092,0.506,8.658,4.598,10.208c0.926,0.348,1.868,0.515,2.802,0.515c3.197,0,6.204-1.955,7.407-5.112    c2.69-7.098,5.792-14.157,9.219-20.97C59.915,152.778,58.332,148.022,54.43,146.059z"></path>	</g></g><g>	<g>		<path fill="#F15922" d="M37.582,293.462c-2.097-12.289-3.158-24.896-3.158-37.462c0-7.075,0.34-14.204,0.997-21.184    c0.419-4.352-2.77-8.215-7.122-8.634c-4.313-0.372-8.214,2.77-8.625,7.122c-0.711,7.486-1.076,15.115-1.076,22.696    c0,13.461,1.14,26.953,3.379,40.121c0.665,3.861,4.004,6.584,7.794,6.584c0.443,0,0.894-0.031,1.337-0.111    C35.422,301.858,38.318,297.767,37.582,293.462z"></path>	</g></g><g>	<g>		<path fill="#F15922" d="M65.841,369.755c-3.917-6.536-7.534-13.342-10.747-20.226c-1.852-3.958-6.56-5.683-10.517-3.823    c-3.957,1.853-5.667,6.561-3.823,10.518c3.451,7.383,7.319,14.672,11.522,21.675c1.487,2.477,4.107,3.846,6.797,3.846    c1.384,0,2.786-0.365,4.044-1.132C66.87,378.365,68.088,373.506,65.841,369.755z"></path>	</g></g><g>	<g>		<path fill="#F15922" d="M366.764,224.347H224.362c-8.736,0-15.842,7.106-15.842,15.843v94.928c0,8.737,7.106,15.844,15.85,15.844    h75.833l45.162,45.162c1.512,1.511,3.537,2.318,5.595,2.318c1.021,0,2.05-0.198,3.031-0.603c2.952-1.227,4.882-4.114,4.882-7.313    v-39.566h7.897c8.736,0,15.843-7.106,15.843-15.851v-94.922C382.613,231.453,375.507,224.347,366.764,224.347z M366.771,335.134    H350.96c-4.367,0-7.913,3.545-7.913,7.913v28.377l-33.972-33.972c-1.48-1.488-3.498-2.318-5.595-2.318l-79.134-0.024v-94.921    l0.016-0.016l142.425,0.016L366.771,335.134z"></path>	</g></g><g>	<g>		<path fill="#F15922" d="M279.716,176.866H137.314c-8.736,0-15.842,7.106-15.842,15.843v94.929c0,8.736,7.106,15.843,15.842,15.843    h7.897v39.567c0,3.196,1.931,6.085,4.891,7.312c0.974,0.403,2.002,0.602,3.023,0.602c2.058,0,4.083-0.807,5.595-2.318    l45.162-45.161h12.55c4.368,0,7.913-3.546,7.913-7.914v-55.38l63.307-0.016c4.368,0,7.913-3.545,7.913-7.913v-39.551    C295.566,183.973,288.46,176.866,279.716,176.866z M279.74,224.347h-55.378c-8.736,0-15.842,7.106-15.842,15.843v47.464h-7.913    c-2.097,0-4.115,0.831-5.595,2.318l-33.973,33.972v-28.378c0-4.367-3.545-7.913-7.913-7.913l-15.827-0.016l0.016-94.945    l142.426,0.016V224.347z"></path>	</g></g><g>	<g>		<path fill="#F15922" d="M295.566,263.913h-47.48c-4.368,0-7.913,3.546-7.913,7.913c0,4.368,3.545,7.913,7.913,7.913h47.48    c4.368,0,7.914-3.545,7.914-7.913C303.48,267.459,299.935,263.913,295.566,263.913z"></path>	</g></g><g>	<g>		<path fill="#F15922" d="M343.047,263.913H327.22c-4.367,0-7.913,3.546-7.913,7.913c0,4.368,3.546,7.913,7.913,7.913h15.827    c4.368,0,7.913-3.545,7.913-7.913C350.96,267.459,347.415,263.913,343.047,263.913z"></path>	</g></g><g>	<g>		<path fill="#F15922" d="M343.047,295.567h-47.48c-4.367,0-7.913,3.545-7.913,7.913c0,4.367,3.546,7.913,7.913,7.913h47.48    c4.368,0,7.913-3.546,7.913-7.913C350.96,299.112,347.415,295.567,343.047,295.567z"></path>	</g></g><g>	<g>		<path fill="#F15922" d="M263.913,295.567h-15.827c-4.368,0-7.913,3.545-7.913,7.913c0,4.367,3.545,7.913,7.913,7.913h15.827    c4.367,0,7.913-3.546,7.913-7.913C271.826,299.112,268.281,295.567,263.913,295.567z"></path>	</g></g><g>	<g>		<path fill="#F15922" d="M177.649,463.275c-7.09-2.689-14.141-5.784-20.97-9.219c-3.901-1.955-8.665-0.388-10.627,3.514    c-1.962,3.909-0.388,8.666,3.521,10.628c7.313,3.68,14.878,7.003,22.475,9.876c0.925,0.348,1.868,0.515,2.801,0.515    c3.198,0,6.204-1.955,7.399-5.112C183.798,469.385,181.74,464.818,177.649,463.275z"></path>	</g></g><g>	<g>		<path fill="#F15922" d="M291.356,482.916c-0.522-4.337-4.438-7.438-8.799-6.916c-17.521,2.097-35.65,2.097-53.241-0.016    c-4.352-0.522-8.278,2.571-8.8,6.908c-0.515,4.336,2.58,8.277,6.916,8.8c9.433,1.131,19.04,1.709,28.567,1.709    c9.504,0,19.08-0.569,28.441-1.686C288.785,491.193,291.879,487.253,291.356,482.916z"></path>	</g></g><g>	<g>		<path fill="#F15922" d="M365.94,457.57c-1.971-3.902-6.726-5.485-10.627-3.515c-6.821,3.435-13.88,6.537-20.97,9.219    c-4.084,1.543-6.148,6.11-4.599,10.2c1.203,3.157,4.211,5.112,7.407,5.112c0.934,0,1.875-0.166,2.793-0.515    c7.597-2.881,15.162-6.204,22.475-9.876C366.328,466.234,367.903,461.479,365.94,457.57z"></path>	</g></g></svg>