<svg xmlns="http://www.w3.org/2000/svg" xmlns:xlink="http://www.w3.org/1999/xlink" id="Layer_3" x="0px" y="0px" width="512px" height="512px" viewBox="0 0 512 512" xml:space="preserve"><path fill="#F15922" d="M256,240c26.51,0,48-21.49,48-48s-21.49-48-48-48s-48,21.49-48,48C208.026,218.499,229.501,239.974,256,240z   M256,160c17.674,0,32,14.327,32,32s-14.326,32-32,32c-17.673,0-32-14.327-32-32S238.327,160,256,160z"></path><path fill="#F15922" d="M288,248h-64c-26.499,0.026-47.974,21.502-48,48v40c0,4.418,3.582,8,8,8h144c4.418,0,8-3.582,8-8v-40  C335.974,269.502,314.499,248.026,288,248z M320,328H192v-32c0-17.673,14.327-32,32-32h64c17.674,0,32,14.327,32,32V328z"></path><path fill="#F15922" d="M472,224c-0.904,0-1.744,0.192-2.632,0.264l-35.584-101.688c14.717-9.785,18.716-29.648,8.931-44.365  c-9.784-14.717-29.647-18.716-44.364-8.931c-3.543,2.355-6.58,5.393-8.935,8.936l-101.68-35.584C287.809,41.752,288,40.904,288,40  c0-17.673-14.326-32-32-32c-17.673,0-32,14.327-32,32c0,0.904,0.192,1.752,0.264,2.632l-101.68,35.592  c-9.782-14.719-29.644-18.721-44.363-8.939c-14.719,9.782-18.721,29.644-8.939,44.363c2.354,3.543,5.392,6.581,8.934,8.936  l-35.584,101.68C41.752,224.192,40.904,224,40,224c-17.673,0-32,14.327-32,32s14.327,32,32,32c0.904,0,1.752-0.191,2.632-0.264  l35.592,101.68c-14.719,9.782-18.721,29.645-8.939,44.363c9.782,14.719,29.644,18.721,44.363,8.939  c3.543-2.355,6.581-5.393,8.936-8.935l101.68,35.584c-0.072,0.88-0.264,1.728-0.264,2.632c0,17.673,14.327,32,32,32  c17.674,0,32-14.327,32-32c0-0.904-0.191-1.752-0.264-2.632l101.68-35.592c9.774,14.724,29.634,18.736,44.358,8.963  c14.725-9.774,18.737-29.635,8.963-44.358c-2.358-3.553-5.402-6.598-8.953-8.957l35.584-101.688  c0.888,0.072,1.728,0.264,2.632,0.264c17.673,0,32-14.327,32-32C504,238.327,489.673,224,472,224z M454.216,229.424  c-6.485,4.384-11.139,10.993-13.08,18.576h-25.544c-1.813-36.817-16.347-71.864-41.12-99.16l25.376-25.376  c4.877,2.941,10.458,4.508,16.152,4.536c0.904,0,1.744-0.192,2.632-0.264L454.216,229.424z M256,400c-79.529,0-144-64.471-144-144  c0-79.529,64.471-144,144-144c79.529,0,144,64.471,144,144C399.907,335.49,335.49,399.907,256,400z M416,80c8.837,0,16,7.164,16,16  s-7.163,16-16,16s-16-7.164-16-16S407.163,80,416,80z M384.264,93.368C384.192,94.248,384,95.096,384,96  c0.028,5.694,1.595,11.275,4.536,16.152L363.2,137.528c-27.303-24.787-62.368-39.322-99.2-41.12V70.864  c7.588-1.942,14.199-6.599,18.584-13.088L384.264,93.368z M256,24c8.836,0,16,7.164,16,16s-7.164,16-16,16c-8.836,0-16-7.164-16-16  S247.164,24,256,24z M229.416,57.776c4.384,6.49,10.997,11.146,18.584,13.088v25.544c-36.818,1.807-71.868,16.341-99.16,41.12  l-25.376-25.376c2.941-4.876,4.508-10.458,4.536-16.152c0-0.904-0.192-1.752-0.264-2.632L229.416,57.776z M96,80  c8.836,0,16,7.164,16,16s-7.164,16-16,16s-16-7.164-16-16S87.164,80,96,80z M93.368,127.736C94.248,127.808,95.096,128,96,128  c5.694-0.028,11.275-1.595,16.152-4.536l25.376,25.376c-24.779,27.292-39.313,62.342-41.12,99.16H70.864  c-1.941-7.583-6.594-14.192-13.08-18.576L93.368,127.736z M24,256c0-8.836,7.164-16,16-16s16,7.164,16,16c0,8.836-7.164,16-16,16  S24,264.836,24,256z M57.776,282.584c6.49-4.385,11.146-10.996,13.088-18.584h25.544c1.797,36.832,16.333,71.896,41.12,99.2  l-25.376,25.376C107.279,385.621,101.698,384.04,96,384c-0.904,0-1.752,0.191-2.632,0.264L57.776,282.584z M96,432  c-8.836,0-16-7.163-16-16s7.164-16,16-16s16,7.163,16,16S104.836,432,96,432z M127.736,418.632c0.072-0.88,0.264-1.728,0.264-2.632  c-0.028-5.694-1.595-11.275-4.536-16.152l25.376-25.375c27.292,24.778,62.342,39.313,99.16,41.119v25.544  c-7.587,1.941-14.2,6.599-18.584,13.088L127.736,418.632z M256,488c-8.836,0-16-7.163-16-16s7.164-16,16-16c8.836,0,16,7.163,16,16  S264.836,488,256,488z M282.584,454.224c-4.385-6.489-10.996-11.146-18.584-13.088v-25.544c36.832-1.798,71.896-16.333,99.2-41.119  l25.376,25.375c-2.954,4.873-4.535,10.454-4.576,16.152c0,0.904,0.192,1.752,0.264,2.632L282.584,454.224z M416,432  c-8.837,0-16-7.163-16-16s7.163-16,16-16s16,7.163,16,16S424.837,432,416,432z M418.632,384.264  C417.744,384.191,416.904,384,416,384c-5.694,0.031-11.274,1.599-16.152,4.536L374.472,363.2  c24.788-27.304,39.322-62.368,41.12-99.2h25.544c1.941,7.584,6.595,14.192,13.08,18.576L418.632,384.264z M472,272  c-8.837,0-16-7.164-16-16c0-8.836,7.163-16,16-16s16,7.164,16,16C488,264.836,480.837,272,472,272z"></path></svg>