<svg xmlns="http://www.w3.org/2000/svg" xmlns:xlink="http://www.w3.org/1999/xlink" id="Layer_1" x="0px" y="0px" width="512px" height="512px" viewBox="0 0 512 512" xml:space="preserve"><g>	<g>		<path fill="#F15922" d="M451.215,210.135c0-12.303-4.572-24.073-12.875-33.144c-7.334-8.011-10.312-19.205-7.964-29.944    c2.615-11.967,0.681-24.403-5.449-35.02c-6.138-10.631-15.957-18.53-27.649-22.242c-10.422-3.309-18.618-11.505-21.927-21.927    c-3.714-11.692-11.612-21.513-22.242-27.649c-10.615-6.128-23.049-8.063-35.02-5.449c-10.738,2.347-21.934-0.63-29.944-7.964    C279.075,18.492,267.304,13.92,255,13.92s-24.073,4.572-33.144,12.875c-8.011,7.334-19.206,10.313-29.945,7.964    c-11.966-2.613-24.402-0.681-35.019,5.449c-10.63,6.137-18.53,15.957-22.243,27.651c-3.309,10.421-11.505,18.617-21.927,21.926    c-11.693,3.712-21.513,11.612-27.651,22.243c-6.128,10.615-8.063,23.051-5.448,35.019c2.347,10.739-0.63,21.934-7.964,29.945    c-8.304,9.069-12.875,20.84-12.875,33.144s4.572,24.073,12.875,33.144c7.334,8.011,10.311,19.206,7.964,29.945    c-2.616,11.966-0.681,24.402,5.448,35.019c6.137,10.631,15.958,18.53,27.651,22.242c3.384,1.074,6.529,2.673,9.352,4.687    l-32.176,77.682c-5.005,12.084-3.132,25.41,5.011,35.646s20.705,15.058,33.607,12.897c20.127-3.368,40.788,5.188,52.636,21.803    c6.775,9.501,17.289,14.883,28.706,14.883c1.381,0,2.776-0.079,4.177-0.239c12.997-1.479,23.744-9.578,28.75-21.663l12.215-29.489    l12.216,29.489c5.006,12.085,15.753,20.184,28.749,21.663c1.401,0.16,2.796,0.239,4.177,0.239c11.416,0,21.93-5.382,28.705-14.883    c11.849-16.615,32.514-25.172,52.637-21.803c12.896,2.158,25.463-2.661,33.606-12.897c8.143-10.236,10.017-23.562,5.011-35.646    c-1.499-3.619-5.647-5.338-9.266-3.839c-3.619,1.499-5.339,5.647-3.839,9.267c3.003,7.25,1.878,15.246-3.007,21.388    s-12.419,9.036-20.164,7.739c-25.433-4.261-51.552,6.556-66.527,27.556c-4.558,6.391-11.933,9.676-19.729,8.787    c-7.798-0.888-14.246-5.747-17.25-12.998l-17.643-42.594l10.473-25.283c5.474-2.178,10.56-5.339,14.995-9.4    c8.011-7.334,19.208-10.309,29.944-7.964c11.972,2.617,24.405,0.68,35.019-5.448c10.631-6.137,18.53-15.957,22.243-27.65    c0.579-1.827,1.318-3.581,2.185-5.258l18.605,44.917c1.131,2.731,3.771,4.381,6.555,4.381c0.904,0,1.824-0.175,2.711-0.542    c3.619-1.499,5.338-5.648,3.839-9.267l-21.321-51.473c2.824-2.014,5.969-3.612,9.354-4.687    c11.692-3.712,21.512-11.611,27.649-22.242c6.129-10.616,8.063-23.052,5.449-35.019c-2.348-10.739,0.629-21.935,7.964-29.946    C446.643,234.208,451.215,222.438,451.215,210.135L451.215,210.135z M229.681,470.751c-3.003,7.251-9.451,12.109-17.25,12.998    c-7.793,0.89-15.172-2.396-19.729-8.786c-14.976-20.999-41.085-31.816-66.528-27.557c-7.735,1.295-15.277-1.597-20.163-7.739    c-4.886-6.142-6.009-14.137-3.006-21.388l29.461-71.126c0.866,1.676,1.604,3.43,2.185,5.257    c3.712,11.693,11.612,21.512,22.243,27.65c10.616,6.128,23.052,8.063,35.019,5.448c10.737-2.349,21.933,0.63,29.944,7.964    c9.07,8.304,20.841,12.876,33.144,12.876c0.458,0,0.914-0.02,1.371-0.032L229.681,470.751z M427.877,233.7    c-10.442,11.407-14.688,27.314-11.359,42.552c1.859,8.508,0.483,17.35-3.875,24.899c-4.365,7.56-11.347,13.176-19.658,15.815    c-14.808,4.701-26.454,16.348-31.153,31.152c-2.639,8.314-8.256,15.295-15.816,19.659c-7.548,4.359-16.392,5.735-24.897,3.876    c-15.236-3.33-31.145,0.916-42.552,11.359c-6.447,5.902-14.817,9.153-23.566,9.153c-8.749,0-17.118-3.251-23.566-9.153    c-8.849-8.101-20.402-12.472-32.252-12.472c-3.427,0-6.88,0.366-10.299,1.113c-8.51,1.859-17.351,0.482-24.899-3.876    c-7.56-4.364-13.176-11.346-15.815-19.659c-4.701-14.806-16.347-26.452-31.153-31.153c-8.313-2.639-15.295-8.255-19.66-15.815    c-4.358-7.548-5.734-16.39-3.875-24.897c3.331-15.236-0.917-31.145-11.359-42.551c-5.903-6.448-9.153-14.817-9.153-23.566    c0-8.749,3.25-17.119,9.153-23.565c10.442-11.407,14.689-27.315,11.359-42.552c-1.859-8.508-0.483-17.35,3.875-24.899    c4.365-7.56,11.347-13.176,19.66-15.815c14.806-4.701,26.452-16.347,31.153-31.153c2.639-8.313,8.255-15.294,15.815-19.659    c7.549-4.358,16.391-5.733,24.898-3.875c15.234,3.329,31.145-0.917,42.551-11.359c6.447-5.903,14.817-9.153,23.566-9.153    s17.118,3.251,23.565,9.153c11.406,10.443,27.315,14.69,42.551,11.36c8.505-1.86,17.351-0.483,24.898,3.875    c7.56,4.363,13.177,11.346,15.816,19.658c4.7,14.807,16.346,26.453,31.153,31.154c8.312,2.639,15.293,8.255,19.658,15.815    c4.357,7.549,5.732,16.391,3.875,24.899c-3.329,15.238,0.918,31.145,11.359,42.551c5.902,6.448,9.154,14.817,9.154,23.565    C437.03,218.886,433.78,227.253,427.877,233.7L427.877,233.7z"></path>		<path fill="#F15922" d="M255,76.961c-30.017,0-59.473,10.317-82.944,29.05c-3.061,2.443-3.562,6.906-1.119,9.968    c2.443,3.061,6.905,3.562,9.968,1.119c21.271-16.979,46.894-25.953,74.096-25.953c65.612,0,118.989,53.379,118.989,118.989    c0,65.61-53.377,118.989-118.989,118.989c-65.611,0-118.991-53.378-118.991-118.989c0-27.202,8.974-52.825,25.952-74.096    c2.444-3.061,1.942-7.524-1.118-9.968c-3.062-2.444-7.524-1.942-9.968,1.119c-18.734,23.471-29.05,52.929-29.05,82.944    c0,73.433,59.742,133.174,133.173,133.174c73.432,0,133.173-59.742,133.173-133.174C388.173,136.703,328.432,76.961,255,76.961    L255,76.961z"></path>		<path fill="#F15922" d="M298.344,131.565c-7.154-7.9-19.406-8.528-27.31-1.397l-39.753,35.873    c-4.044-4.176-9.705-6.781-15.965-6.781h-20.822c-12.261,0-22.236,9.976-22.236,22.236v71.932c0,12.26,9.975,22.236,22.236,22.236    h20.822c5.474,0,10.488-1.991,14.366-5.283c5.253,3.436,11.39,5.283,17.813,5.283h57.599c18.001,0,32.646-14.646,32.646-32.646    v-45.519c0-18.002-14.646-32.646-32.646-32.646h-11.665l6.258-9.029C304.868,148.347,304.303,138.146,298.344,131.565z     M215.317,261.479h-20.822c-4.44,0-8.052-3.611-8.052-8.051v-71.932c0-4.439,3.612-8.051,8.052-8.051h20.822    c4.439,0,8.052,3.612,8.052,8.051v71.932C223.368,257.867,219.756,261.479,215.317,261.479z M305.095,179.035    c10.18,0,18.462,8.283,18.462,18.462v45.519c0,10.18-8.283,18.462-18.462,18.462h-57.599c-3.797,0-7.413-1.147-10.469-3.264    c0.34-1.543,0.525-3.144,0.525-4.787v-71.932c0-0.649-0.035-1.291-0.089-1.928l43.073-38.868c2.106-1.9,5.378-1.727,7.293,0.388    c1.58,1.745,1.664,4.542,0.2,6.655l-13.971,20.161c-1.504,2.169-1.678,4.993-0.454,7.33c1.225,2.337,3.645,3.802,6.284,3.802    L305.095,179.035L305.095,179.035z"></path>	</g></g></svg>