<svg xmlns="http://www.w3.org/2000/svg" xmlns:xlink="http://www.w3.org/1999/xlink" id="Layer_1" x="0px" y="0px" width="512px" height="512px" viewBox="0 0 512 512" xml:space="preserve"><g>	<g>		<g>			<g>				<path fill="#F15922" d="M77.824,369.777c-1.593,0-3.186-0.227-4.665-0.682l-54.5-15.133c-4.551-1.252-8.306-4.21-10.695-8.42      c-2.275-4.096-2.844-8.988-1.593-13.539l42.098-146.091c2.617-9.216,12.402-14.678,21.731-12.061l54.5,15.132      c4.551,1.251,8.419,4.21,10.695,8.419c2.275,4.21,2.845,8.989,1.593,13.54L94.891,357.035      C92.615,364.658,85.447,369.777,77.824,369.777z M76.117,358.172c3.3,0.91,6.713-1.023,7.737-4.323l42.098-146.09      c0.455-1.593,0.228-3.3-0.569-4.779s-2.162-2.503-3.755-2.958l-54.5-15.246c-3.3-0.911-6.713,1.024-7.737,4.323L17.294,335.189      c-0.456,1.593-0.228,3.299,0.569,4.778s2.162,2.503,3.754,2.958L76.117,358.172z"></path>			</g>			<g>				<path fill="#F15922" d="M85.106,244.053c-1.707,0-3.414-0.228-5.12-0.683c-4.893-1.365-8.988-4.551-11.492-8.988      c-2.503-4.438-3.186-9.558-1.82-14.45c2.844-10.126,13.426-16.043,23.552-13.312c10.126,2.73,16.043,13.426,13.312,23.552      c-1.365,4.893-4.551,8.989-8.988,11.492C91.478,243.257,88.292,244.053,85.106,244.053L85.106,244.053z M84.992,217.202      c-1.366,0-2.617,0.341-3.755,1.024c-1.82,1.024-3.072,2.617-3.641,4.665c-1.138,4.096,1.251,8.306,5.347,9.443      c1.935,0.569,4.096,0.342,5.917-0.683c1.82-1.024,3.072-2.617,3.641-4.665c1.138-4.096-1.251-8.306-5.348-9.444      C86.357,217.315,85.675,217.202,84.992,217.202z"></path>			</g>			<g>				<g>					<path fill="#F15922" d="M434.176,369.777c-7.623,0-14.791-5.006-16.953-12.742l-42.098-146.091       c-1.251-4.551-0.796-9.33,1.593-13.54c2.39-4.209,6.145-7.168,10.695-8.419l54.5-15.132       c9.329-2.617,19.001,2.844,21.731,12.061l42.098,146.091c1.252,4.551,0.797,9.33-1.593,13.539       c-2.275,4.096-6.144,7.168-10.695,8.42l-54.499,15.133C437.361,369.551,435.769,369.777,434.176,369.777z M446.578,184.547       c-0.569,0-1.138,0.114-1.707,0.228l-54.5,15.133c-1.593,0.455-2.958,1.479-3.754,2.958c-0.797,1.479-1.024,3.186-0.569,4.779       l42.098,146.091c0.91,3.3,4.438,5.233,7.737,4.323l54.499-15.133c1.593-0.455,2.959-1.479,3.755-2.958       c0.797-1.479,1.024-3.186,0.569-4.778l-42.098-146.091C451.812,186.368,449.194,184.547,446.578,184.547z"></path>				</g>				<g>					<path fill="#F15922" d="M426.553,244.053c-8.306,0-16.043-5.575-18.432-13.995c-1.365-4.893-0.683-10.012,1.706-14.45       c2.504-4.438,6.6-7.623,11.492-8.988c10.126-2.845,20.707,3.186,23.552,13.312c2.845,10.126-3.186,20.708-13.313,23.552       C429.966,243.826,428.26,244.053,426.553,244.053z M426.553,217.202c-0.683,0-1.365,0.114-2.048,0.341       c-1.935,0.569-3.641,1.821-4.665,3.641c-1.023,1.82-1.251,3.868-0.683,5.803c0.569,1.934,1.82,3.641,3.641,4.665       c1.821,1.024,3.869,1.252,5.803,0.683c4.097-1.138,6.485-5.347,5.348-9.443C433.038,219.478,429.966,217.202,426.553,217.202z"></path>				</g>			</g>			<g>				<g>					<path fill="#F15922" d="M366.934,370.461c-3.072,0-5.575-2.39-5.689-5.462c-0.113-3.186,2.275-5.803,5.462-5.917       c0.341,0,28.444-1.251,50.403-16.497c2.617-1.82,6.144-1.138,7.965,1.479c1.82,2.616,1.138,6.144-1.479,7.964       c-24.804,17.181-55.183,18.433-56.434,18.433C367.047,370.461,367.047,370.461,366.934,370.461L366.934,370.461z"></path>				</g>				<g>					<g>						<g>							<path fill="#F15922" d="M110.25,363.861c-1.479,0-2.958-0.568-3.982-1.707l-16.839-16.839c-2.162-2.275-2.162-5.803,0-8.078         c2.162-2.275,5.803-2.275,8.078,0l16.839,16.839c2.162,2.275,2.162,5.803,0,8.078         C113.209,363.293,111.73,363.861,110.25,363.861z"></path>						</g>						<g>							<path fill="#F15922" d="M221.98,465.92c-7.396,0-14.905-2.845-20.48-8.533l-9.671-9.671c-2.162-2.275-2.162-5.803,0-8.078         c2.162-2.276,5.803-2.276,8.079,0l9.671,9.671c6.827,6.826,18.091,6.826,24.917,0c3.299-3.3,5.12-7.737,5.12-12.402         c0-2.275-0.455-4.551-1.252-6.599c-0.91-2.162-2.162-4.096-3.868-5.803c-2.162-2.275-2.162-5.803,0-8.078         c2.162-2.275,5.803-2.275,8.078,0l21.617,21.618c6.827,6.826,18.092,6.826,24.918,0c3.299-3.3,5.12-7.737,5.12-12.516         c0-4.779-1.821-9.103-5.12-12.516c-2.275-2.275-2.275-5.803,0-8.078c2.275-2.276,5.803-2.276,8.078,0         c5.461,5.461,8.533,12.742,8.533,20.479s-2.958,15.019-8.533,20.48c-11.264,11.264-29.695,11.264-40.96,0l-5.348-5.348         c-0.796,6.258-3.641,12.174-8.306,16.725C236.771,463.075,229.376,465.92,221.98,465.92z"></path>						</g>						<g>							<path fill="#F15922" d="M318.919,430.99c-7.396,0-14.791-2.845-20.479-8.533l-53.021-53.021         c-2.162-2.275-2.162-5.803,0-8.078c2.162-2.276,5.803-2.276,8.079,0l53.021,53.021c6.826,6.826,18.091,6.826,24.917,0         c6.827-6.827,6.827-18.091,0-24.918l-53.021-53.02c-2.275-2.275-2.275-5.803,0-8.078c2.275-2.276,5.803-2.276,8.078,0         l53.021,53.02c11.265,11.264,11.265,29.696,0,40.96C333.824,428.26,326.314,430.99,318.919,430.99z"></path>						</g>						<g>							<path fill="#F15922" d="M343.95,390.145c-7.737,0-15.019-2.959-20.479-8.533c-2.276-2.276-2.276-5.803,0-8.079         c2.275-2.275,5.802-2.275,8.078,0c3.299,3.3,7.736,5.12,12.516,5.12c4.778,0,9.102-1.82,12.515-5.12         c2.617-2.616,4.324-6.03,4.893-9.671c0.114-0.91,0.228-1.82,0.228-2.844c0-4.666-1.82-9.104-5.12-12.516l-84.31-84.311         c-6.144-6.144-15.132-8.419-23.438-6.144c-4.324,1.252-8.078,3.527-11.15,6.827l-26.396,28.672         c-0.114,0-0.114,0.113-0.114,0.113c-12.402,12.402-32.426,12.402-44.828,0c-9.899-9.898-12.174-24.917-5.575-37.319         c8.419-15.815,22.983-37.661,44.601-51.2c0.114,0,0.114-0.114,0.228-0.114c17.749-11.15,37.205-14.791,57.799-11.15         c3.072,0.455,45.966,7.054,79.645,30.037l36.409-15.701c2.844-1.251,6.258,0.114,7.509,2.958         c1.252,2.845-0.113,6.258-2.958,7.509l-39.367,16.953c-1.82,0.796-3.982,0.569-5.575-0.569         c-32.199-23.21-76.913-29.924-77.368-29.924c-0.114,0-0.114,0-0.229,0c-17.863-3.299-34.702,0-49.948,9.671         c-0.114,0-0.114,0.114-0.228,0.114c-19.342,12.288-32.654,32.199-40.391,46.763c-4.209,7.964-2.73,17.521,3.527,23.893         c7.851,7.851,20.708,7.965,28.672,0.113l26.169-28.443c4.438-4.779,10.126-8.306,16.384-10.126         c12.288-3.414,25.6,0,34.588,8.988l84.31,84.31c5.461,5.461,8.533,12.742,8.533,20.479c0,1.593-0.113,3.186-0.341,4.665         c-0.91,6.029-3.755,11.491-8.078,15.929C358.969,387.072,351.688,390.145,343.95,390.145L343.95,390.145z"></path>						</g>					</g>					<g>						<path fill="#F15922" d="M129.365,223.004c-2.617,0-4.893-1.82-5.575-4.437c-0.683-3.072,1.252-6.144,4.324-6.827        c36.978-8.419,78.621-7.396,80.441-7.282c3.072,0.114,5.575,2.617,5.575,5.689c0,3.186-2.617,5.803-5.803,5.689        c-1.707,0-41.984-1.138-77.597,7.054C130.162,222.891,129.82,223.004,129.365,223.004L129.365,223.004z"></path>					</g>				</g>			</g>			<g>				<g>					<path fill="#F15922" d="M123.449,386.503c-5.575,0-10.809-2.161-14.791-6.144c-3.982-3.982-6.144-9.217-6.144-14.791       c0-5.575,2.162-10.809,6.144-14.791l17.977-17.978c8.078-8.078,21.39-8.078,29.468,0c3.982,3.982,6.144,9.216,6.144,14.792       c0,5.574-2.162,10.809-6.144,14.791c-2.162,2.275-5.803,2.275-8.078,0c-2.162-2.276-2.162-5.803,0-8.078       c1.82-1.821,2.73-4.211,2.73-6.713c0-2.504-1.024-4.893-2.73-6.713c-3.755-3.756-9.671-3.756-13.426,0l-17.977,17.977       c-1.82,1.82-2.73,4.209-2.73,6.713c0,2.503,1.024,4.893,2.73,6.713c1.821,1.82,4.21,2.73,6.713,2.73       c2.503,0,4.893-1.024,6.713-2.73c2.162-2.275,5.803-2.275,8.078,0c2.162,2.275,2.162,5.803,0,8.078       C134.258,384.342,129.024,386.503,123.449,386.503L123.449,386.503z"></path>				</g>				<g>					<path fill="#F15922" d="M138.582,414.379c-5.348,0-10.695-2.048-14.792-6.145c-3.982-3.981-6.144-9.216-6.144-14.791       c0-5.574,2.162-10.809,6.144-14.791l24.349-24.348c8.078-8.079,21.39-8.079,29.468,0c3.982,3.981,6.144,9.215,6.144,14.791       c0,5.574-2.162,10.809-6.144,14.791c-2.162,2.275-5.802,2.275-8.078,0c-2.162-2.275-2.162-5.803,0-8.078       c1.82-1.821,2.731-4.211,2.731-6.713c0-2.504-1.024-4.893-2.731-6.713c-3.754-3.756-9.785-3.756-13.426,0l-24.234,24.462       c-1.821,1.82-2.731,4.21-2.731,6.713s1.024,4.893,2.731,6.713c3.754,3.755,9.671,3.755,13.426,0       c2.162-2.275,5.802-2.275,8.078,0c2.275,2.275,2.162,5.803,0,8.078C149.276,412.331,143.929,414.379,138.582,414.379       L138.582,414.379z"></path>				</g>				<g>					<path fill="#F15922" d="M152.917,442.937c-5.575,0-10.809-2.161-14.792-6.144c-3.982-3.982-6.144-9.216-6.144-14.791       s2.162-10.809,6.144-14.791l31.403-31.402c8.078-8.079,21.39-8.079,29.469,0c3.982,3.981,6.144,9.215,6.144,14.791       c0,5.574-2.162,10.809-6.144,14.791l-31.403,31.402C163.726,440.775,158.492,442.937,152.917,442.937z M184.434,381.156       c-2.389,0-4.892,0.91-6.713,2.73l-31.516,31.402c-1.821,1.82-2.731,4.21-2.731,6.713s1.024,4.893,2.731,6.713       c1.82,1.82,4.209,2.73,6.713,2.73c2.503,0,4.892-1.024,6.713-2.73l31.402-31.402c1.821-1.82,2.731-4.211,2.731-6.713       c0-2.504-1.024-4.893-2.731-6.713C189.212,382.066,186.823,381.156,184.434,381.156z"></path>				</g>				<g>					<path fill="#F15922" d="M183.523,455.225c-5.575,0-10.809-2.161-14.791-6.144s-6.144-9.216-6.144-14.791       s2.162-10.81,6.144-14.791c2.162-2.276,5.803-2.276,8.078,0c2.162,2.275,2.162,5.803,0,8.078c-1.82,1.82-2.73,4.21-2.73,6.713       s1.024,4.893,2.73,6.713c1.821,1.82,4.21,2.73,6.713,2.73c2.503,0,4.893-1.024,6.713-2.73l22.301-22.301       c3.754-3.755,3.754-9.671,0-13.426c-3.755-3.755-9.671-3.755-13.426,0c-2.162,2.275-5.803,2.275-8.079,0       c-2.162-2.275-2.162-5.803,0-8.078c8.079-8.078,21.391-8.078,29.469,0s8.078,21.391,0,29.469l-22.301,22.3       C194.333,453.063,189.099,455.225,183.523,455.225z"></path>				</g>			</g>		</g>	</g>	<g>		<path fill="#F15922" d="M313.571,220.274c-1.138,0-2.389-0.341-3.413-1.138c-2.503-1.934-2.958-5.461-1.138-7.964    c16.384-21.504,24.917-47.445,24.917-74.638V88.178L256,57.913l-77.938,30.265v48.355c0,25.373,7.51,49.721,21.846,70.315    c1.82,2.617,1.138,6.144-1.479,7.964c-2.617,1.82-6.144,1.138-7.964-1.479c-15.587-22.528-23.893-49.152-23.893-76.8V84.31    c0-2.39,1.479-4.438,3.641-5.348l83.627-32.541c1.365-0.455,2.844-0.455,4.095,0l83.627,32.541    c2.162,0.91,3.642,2.958,3.642,5.348v52.224c0,29.81-9.444,57.913-27.307,81.579C316.985,219.591,315.278,220.274,313.571,220.274    L313.571,220.274z"></path>	</g>	<g>		<path fill="#F15922" d="M284.33,210.147c-1.365,0-2.73-0.455-3.867-1.479c-2.276-2.162-2.504-5.689-0.342-8.078    c16.043-17.522,24.917-40.277,24.917-64.057v-28.444L256,88.974l-49.038,19.115v28.444c0,22.642,8.078,44.601,22.869,61.781    c2.048,2.39,1.82,6.03-0.569,8.079c-2.389,2.048-6.03,1.82-8.078-0.569c-16.498-19.229-25.6-43.805-25.6-69.177v-32.541    c0-2.389,1.479-4.437,3.641-5.347l54.727-21.277c1.365-0.455,2.845-0.455,4.096,0l54.728,21.277    c2.161,0.91,3.641,2.958,3.641,5.347v32.427c0,26.624-9.898,52.11-27.875,71.794C287.289,209.579,285.81,210.147,284.33,210.147    L284.33,210.147z"></path>	</g>	<g>		<path fill="#F15922" d="M244.85,173.739c-1.479,0-2.958-0.569-3.982-1.707l-15.815-15.815c-2.162-2.162-2.162-5.803,0-8.078    c2.162-2.162,5.803-2.162,8.079,0l11.833,11.833l34.133-34.133c2.276-2.162,5.803-2.162,8.079,0c2.275,2.162,2.275,5.802,0,8.078    l-38.116,38.116C247.808,173.17,246.329,173.739,244.85,173.739z"></path>	</g></g></svg>