<svg xmlns="http://www.w3.org/2000/svg" xmlns:xlink="http://www.w3.org/1999/xlink" id="Layer_2" x="0px" y="0px" width="800px" height="1200px" viewBox="0 0 800 1200" xml:space="preserve"><g>	<path d="M785.717,739.358c-9.224-9.186-21.497-14.258-34.558-14.258h-1.304c-12.021,0-23.287,4.556-32.126,12.657l3.938-19.701   c0.604-3.062,0.914-6.181,0.914-10.011c0-26.185-21.289-47.462-47.461-47.462c-23.457,0-43.662,17.51-46.977,40.739   c-5.38,37.639-19.896,73.891-42.005,104.851l-25.031,35.056H421.384c-10.194,0-20.155-4.127-27.369-11.341l-12.469-12.468   l85.396-56.925c14.63-9.771,23.381-26.09,23.381-43.706v-3.691c0-28.95-23.563-52.515-52.514-52.515   c-10.401,0-20.464,3.044-29.14,8.828L238.105,783.115c-6.376,4.259-13.798,6.502-21.472,6.502h-74.698v25.806h74.698   c12.783,0,25.157-3.742,35.78-10.836l170.552-113.704c4.43-2.941,9.552-4.492,14.844-4.492c14.73,0,26.708,11.99,26.708,26.708   v3.691c0,8.94-4.455,17.264-11.896,22.234l-102.167,68.114l-27.205,81.615l24.483,8.165l19.197-57.61l8.827,8.826   c12.179,12.179,28.384,18.901,45.608,18.901h176.607c17.231,0,33.436-6.723,45.627-18.901l90.738-90.789   c4.152-4.139,9.678-6.438,15.519-6.438h1.304c6.181,0,11.978,2.4,16.337,6.723c4.322,4.322,6.723,10.062,6.71,16.903   c0,6.27-2.464,12.179-6.918,16.646L657.561,900.907c-4.234,4.233-9.457,7.473-15.121,9.368l-174.055,58.002   c-3.957,1.316-8.077,1.984-12.242,1.984H216.154c-4.801,0-9.482-0.9-13.937-2.684l-55.494-22.209l-9.589,23.967l55.5,22.202   c7.523,3.006,15.43,4.53,23.52,4.53h239.988c6.943,0,13.805-1.108,20.401-3.313l174.036-58.002   c9.456-3.15,18.183-8.543,25.227-15.6l109.728-109.728c9.331-9.331,14.466-21.705,14.466-35.592   C800.013,760.817,794.94,748.569,785.717,739.358z M625.34,829.889c-7.201,7.214-17.175,11.341-27.368,11.341h-5.16l14.34-20.066   c24.489-34.306,40.593-74.478,46.541-116.192c1.519-10.591,10.735-18.58,21.428-18.58c11.951,0,21.654,9.716,21.654,22.373   c0,1.437-0.146,2.879-0.416,4.246l-11.454,57.29L625.34,829.889z"></path>	<path fill="#FD5E00" d="M400,647.682c-120.955,0-219.355-98.4-219.355-219.355c0-120.956,98.4-219.355,219.355-219.355   s219.354,98.399,219.354,219.355C619.354,549.282,520.955,647.682,400,647.682z"></path>	<path fill="#3A3A3A" d="M154.839,1008.972H0V725.101h154.839V1008.972z"></path>	<path fill="#FFFFFF" d="M400,260.584c-39.56,0-78.012,14.119-108.272,39.73l16.671,19.676c25.599-21.667,58.127-33.6,91.602-33.6   c78.258,0,141.936,63.678,141.936,141.936c0,33.474-11.933,65.984-33.6,91.589l19.688,16.684   c25.617-30.261,39.718-68.712,39.718-108.272C567.742,335.836,492.49,260.584,400,260.584z"></path>	<path fill="#FFFCFA" d="M400,570.262c-78.257,0-141.936-63.678-141.936-141.935c0-33.474,11.933-65.984,33.6-91.589l-19.689-16.683   c-25.617,30.261-39.717,68.712-39.717,108.272c0,92.49,75.252,167.742,167.742,167.742c39.561,0,78.012-14.119,108.272-39.73   l-16.671-19.676C466.003,558.329,433.474,570.262,400,570.262z"></path>	<path fill="#FFFFFF" d="M322.581,454.133v25.807c4.36,0,8.657-0.284,12.903-0.762v0.762h46.648   c36.901,0,69.607,22.14,83.311,56.401l23.954-9.577c-16.129-40.323-52.753-67.326-95.193-71.73   c13.489-10.604,24.534-24.125,32.258-39.611h38.055v-25.807h-28.8c1.896-8.31,2.993-16.929,2.993-25.806h25.807v-25.807H335.484   v25.807h77.419c0,8.965-1.354,17.628-3.806,25.806h-73.614v25.807h61.107C380.261,438.792,353.188,454.133,322.581,454.133z"></path></g></svg>