<svg xmlns="http://www.w3.org/2000/svg" xmlns:xlink="http://www.w3.org/1999/xlink" id="Layer_2" x="0px" y="0px" width="800px" height="1200px" viewBox="0 0 800 1200" xml:space="preserve"><g>	<path d="M398.296,485.785c25.711,0,50.35-12.957,69.379-36.475c17.379-21.477,27.344-48.566,27.344-74.345   c0-51.933-41.577-91.095-96.723-91.095c-55.147,0-96.723,39.111-96.723,91.095c0,25.779,9.964,52.869,27.344,74.345   C347.945,472.845,372.585,485.785,398.296,485.785L398.296,485.785z M398.296,311.928c39.792,0,68.666,26.51,68.666,63.037   c0,45.913-37.563,82.762-68.666,82.762c-38.04,0-68.666-45.284-68.666-82.762C329.631,338.506,358.505,311.928,398.296,311.928z"></path>	<path d="M283.837,620.43l-9.846,140.442c-0.544,7.729,5.278,14.437,13.008,14.98H287h0.986c7.362-0.006,13.469-5.699,13.995-13.042   l9.846-140.323c0.544-7.729-5.279-14.437-13.008-14.981c-7.729-0.545-14.437,5.279-14.981,13.009l0,0V620.43z"></path>	<path d="M588.563,775.836c7.927-0.7,13.789-7.682,13.111-15.609c0,0-14.828-106.332-17.005-142.008   c-4.029-64.057-43.158-115.445-104.291-124.798c-21.493-3.299-60.536-5.782-80.942-5.799c-27.855,0.482-55.667,2.407-83.324,5.765   c-28.672,3.925-54.933,18.161-73.869,40.046c-19.896,22.974-28.79,52.341-30.609,84.854   c-2.041,35.711-15.559,142.092-15.559,142.092c-0.95,7.689,4.513,14.693,12.203,15.644c7.689,0.95,14.693-4.514,15.643-12.202   c0.016-0.127,0.029-0.253,0.042-0.379c0,0,13.723-107.539,15.679-143.607c2.788-51.116,33.04-92.2,80.296-98.627   c26.376-3.204,52.898-5.042,79.463-5.509c19.012,0,56.745,2.415,76.709,5.475c21.95,3.323,42.019,14.296,56.66,30.983   c15.577,17.889,22.327,41.917,23.807,67.765c2.159,36.119,17.227,143.674,17.227,143.674   C574.933,770.813,581.26,776.063,588.563,775.836z"></path>	<path d="M497.366,607.422c-7.729,0.531-13.564,7.227-13.032,14.957c0.001,0.036,0.005,0.072,0.006,0.108l9.864,140.426   c0.509,7.347,6.613,13.051,13.978,13.06h1.003c7.726-0.553,13.544-7.254,13.01-14.98l-9.864-140.443   c-0.498-7.75-7.188-13.629-14.938-13.129C497.385,607.42,497.375,607.42,497.366,607.422z"></path>	<path fill="#FD5E00" d="M487.81,902.863l67.476-65.774c5.547-5.41,5.658-14.292,0.248-19.84c-2.15-2.205-4.971-3.642-8.02-4.087   l-93.237-13.604l-41.695-84.428c-3.426-6.952-11.837-9.809-18.787-6.382c-2.771,1.366-5.015,3.608-6.381,6.382l-41.696,84.479   l-93.238,13.604c-7.667,1.117-12.976,8.238-11.858,15.905c0.444,3.049,1.88,5.869,4.087,8.021l67.475,65.774l-15.916,92.796   c-1.33,7.633,3.781,14.897,11.414,16.228c3.073,0.535,6.237,0.03,8.992-1.435l83.324-43.837l83.323,43.837   c2.017,1.057,4.255,1.609,6.53,1.616c7.758-0.012,14.037-6.309,14.025-14.067c-0.002-0.784-0.068-1.567-0.201-2.342L487.81,902.863   z M393.467,938.403c-16.291,8.299-64.754,34.01-64.754,34.01l12.362-72.117c0.781-4.549-0.727-9.192-4.03-12.414l-52.392-51.014   l72.407-10.527c4.566-0.666,8.513-3.532,10.56-7.669l32.309-65.621l32.31,65.621c2.047,4.137,5.993,7.003,10.56,7.669   l72.407,10.527l-52.394,51.014c-3.303,3.222-4.809,7.865-4.028,12.414l12.361,72.117c0,0-48.464-25.746-64.754-34.01   C402.358,936.227,397.5,936.227,393.467,938.403L393.467,938.403z"></path>	<path fill="#FD5E00" d="M785.377,855.811l-68.172-9.914l-30.489-61.761c-3.414-6.946-11.812-9.808-18.757-6.395   c-2.779,1.366-5.028,3.615-6.394,6.395l-30.49,61.761l-68.172,9.914c-7.668,1.117-12.977,8.238-11.859,15.905   c0.445,3.051,1.882,5.869,4.089,8.021l49.314,48.088l-11.649,67.885c-1.329,7.633,3.781,14.897,11.415,16.228   c3.072,0.535,6.235,0.03,8.99-1.435l60.964-32.054l60.978,32.054c2.017,1.057,4.255,1.609,6.53,1.616   c7.758-0.012,14.037-6.309,14.025-14.067c-0.002-0.784-0.068-1.567-0.199-2.342l-11.649-67.885l49.314-48.088   c5.546-5.411,5.657-14.293,0.249-19.84c-2.152-2.205-4.971-3.642-8.021-4.087H785.377z M667.619,950.188   c-10.696,5.374-42.359,22.259-42.359,22.259l8.096-47.153c0.778-4.55-0.728-9.191-4.03-12.415l-34.266-33.396l47.341-6.802   c4.573-0.663,8.525-3.539,10.561-7.688l21.171-42.884l21.171,42.884c2.048,4.145,6.002,7.02,10.577,7.688l47.324,6.802   l-34.247,33.396c-3.31,3.22-4.817,7.865-4.03,12.415l8.162,47.153c0,0-31.646-16.885-42.343-22.259   C676.649,947.98,671.717,947.98,667.619,950.188L667.619,950.188z"></path>	<path fill="#FD5E00" d="M237.091,855.811l-68.173-9.914l-30.489-61.761c-3.414-6.946-11.811-9.808-18.756-6.395   c-2.78,1.366-5.028,3.615-6.395,6.395l-30.49,61.761l-68.172,9.914c-7.667,1.117-12.977,8.238-11.859,15.905   c0.444,3.051,1.881,5.869,4.087,8.021l49.314,48.088L44.596,995.71c-1.329,7.633,3.781,14.897,11.415,16.228   c3.073,0.535,6.237,0.03,8.991-1.435l60.979-32.054l60.963,32.054c2.015,1.057,4.255,1.609,6.529,1.616   c7.758-0.012,14.038-6.309,14.026-14.067c-0.001-0.784-0.068-1.567-0.2-2.342l-11.648-67.885l49.314-48.088   c5.546-5.411,5.658-14.293,0.249-19.84c-2.151-2.205-4.971-3.642-8.02-4.087H237.091z M119.417,950.188L76.99,972.446l8.077-47.153   c0.787-4.55-0.721-9.195-4.029-12.415L46.79,879.481l47.325-6.802c4.574-0.668,8.529-3.543,10.576-7.688l21.171-42.884   l21.171,42.884c2.035,4.148,5.987,7.024,10.56,7.688l47.341,6.802l-34.265,33.396c-3.304,3.224-4.811,7.865-4.03,12.415   l8.094,47.153l-42.358-22.259C128.398,947.755,123.394,947.755,119.417,950.188L119.417,950.188z"></path></g></svg>