<svg xmlns="http://www.w3.org/2000/svg" xmlns:xlink="http://www.w3.org/1999/xlink" id="Layer_2" x="0px" y="0px" width="800px" height="1200px" viewBox="0 0 800 1200" xml:space="preserve"><g id="_x32_2_Premium_Service">	<g>		<path fill="#FD5E00" d="M496.52,206.729v-12.686c0-5.422-4.4-9.821-9.822-9.821c-5.423,0-9.822,4.399-9.822,9.821v12.686    c0,5.423,4.399,9.822,9.822,9.822C492.119,216.551,496.52,212.151,496.52,206.729z"></path>		<g>			<path d="M133.483,763.189c-17.931-13.622-45.087-12.523-61.273,3.673L6.324,832.735c-1.842,1.842-2.877,4.336-2.877,6.944     c0,2.607,1.035,5.103,2.877,6.943L172.612,1012.9c3.838,3.838,10.051,3.836,13.889,0l65.873-65.874     c15.899-15.898,17.861-40.537,5.903-58.604l9.712-9.712c9.489-9.489,23.774-12.673,36.447-8.044l73.867,26.842     c75.172,27.286,124.627-16.673,215.639-44.286c23.889-8.875,45.002-24.043,61.065-43.903L786.1,646.792     c9.63-12.009,12.801-27.394,8.695-42.216c-4.105-14.796-14.745-26.345-29.067-31.638c-17.456-6.714-39.145-1.943-52.495,11.637     L594.777,702.661c-14.389-19.585-38.688-30.493-63.539-26.956l-71.87,10.347c-24.811,3.517-49.697-0.768-71.949-12.457     l-2.238-1.19c-47.19-24.834-105.122-20.14-147.604,11.997L133.483,763.189z M238.487,933.14l-58.93,58.929L27.158,839.682     l58.941-58.93c10.155-10.193,27.892-10.181,38.046,0l114.342,114.329C248.974,905.58,248.974,922.639,238.487,933.14z      M376.013,689.789l2.251,1.189c25.948,13.618,54.952,18.618,83.878,14.513l71.885-10.345c20.858-2.967,41.23,8.3,49.926,27.38     c2.456,5.307,2.416,11.419-0.102,16.753c-2.558,5.408-7.328,9.372-13.096,10.895l-135.801,35.488     c-5.256,1.368-8.391,6.739-7.021,11.983c1.375,5.261,6.764,8.386,11.982,7.02l135.813-35.489     c11.408-3.005,20.846-10.844,25.884-21.522c3.964-8.392,4.696-17.74,2.465-26.53l123.095-122.697     c8.082-8.25,20.857-11.254,31.625-7.11c8.454,3.133,14.682,9.872,17.073,18.519c2.403,8.646,0.537,17.634-5.077,24.644     L639.727,796.98c-13.838,17.111-32.036,30.181-52.637,37.842c-93.979,29.114-136.118,68.124-202.083,44.223l-73.867-26.844     c-19.822-7.2-42.189-2.225-57.035,12.622l-9.049,9.049l-97.057-97.048l101.425-76.753     C285.868,672.522,335.551,668.494,376.013,689.789L376.013,689.789z"></path>			<path fill="#FD5E00" d="M321.305,402.072l157.567,205.281c4.229,5.523,12.004,4.64,15.577,0l157.643-205.281     c3.017-3.924,2.119-7.321,0.282-11.522c-18.978-27.233-50.446-72.753-52.93-75.942c-1.97-2.512-4.995-3.819-7.664-3.819     c-132.14-0.129-84.047-0.102-210.139-0.102c-0.013,0-0.013,0-0.013,0c-3.083,0-5.884,1.502-7.718,3.893     c-0.109,0.138-0.291,0.182-0.391,0.328l-52.496,75.541C318.679,393.806,318.932,398.98,321.305,402.072z M426.554,405.967     l38.75,151.452L349.016,405.912C350.362,405.912,431.743,405.97,426.554,405.967z M625.469,386.266     c-1.326,0-71.793-0.028-67.348-0.026l33.662-48.441L625.469,386.266z M453.05,386.241l33.663-48.441l33.686,48.467     C519.074,386.266,448.607,386.239,453.05,386.241z M526.571,405.962L486.686,561.75L446.812,405.91     C448.156,405.91,531.762,405.965,526.571,405.962z M546.855,405.91c1.346,0,82.678,0.047,77.488,0.044L508.097,557.33     L546.855,405.91z M572.882,330.419l-33.665,48.441l-33.721-48.518L572.882,330.419z M467.81,330.419l-33.663,48.441     l-33.72-48.518L467.81,330.419z M381.591,337.722l33.737,48.544c-1.325,0-71.905-0.028-67.461-0.026L381.591,337.722z"></path>			<path fill="#FD5E00" d="M706.379,423.558c5.424,0,9.822-4.399,9.822-9.822c0-5.423-4.398-9.822-9.822-9.822h-12.672     c-5.424,0-9.822,4.399-9.822,9.822c0,5.423,4.398,9.822,9.822,9.822H706.379z"></path>			<path fill="#FD5E00" d="M279.691,423.544c5.423,0,9.822-4.399,9.822-9.822c0-5.422-4.399-9.821-9.822-9.821h-12.673     c-5.423,0-9.822,4.399-9.822,9.821c0,5.423,4.399,9.822,9.822,9.822H279.691z"></path>			<path fill="#FD5E00" d="M640.019,274.304l8.965-8.965c3.839-3.837,3.839-10.051,0-13.889c-3.837-3.836-10.051-3.836-13.888,0     l-8.964,8.966c-3.839,3.836-3.839,10.051,0,13.888C629.968,278.141,636.183,278.139,640.019,274.304z"></path>			<path fill="#FD5E00" d="M333.377,553.157l-8.965,8.964c-3.837,3.838-3.837,10.052,0,13.889c3.839,3.839,10.052,3.837,13.888,0     l8.965-8.965c3.837-3.837,3.837-10.051,0-13.888C343.429,549.319,337.213,549.319,333.377,553.157z"></path>			<path fill="#FD5E00" d="M626.132,553.157c-3.839,3.837-3.839,10.051,0,13.888l8.964,8.965c3.839,3.839,10.051,3.837,13.888,0     c3.839-3.837,3.839-10.051,0-13.889l-8.965-8.964C636.183,549.319,629.968,549.319,626.132,553.157z"></path>			<path fill="#FD5E00" d="M347.278,274.292c3.837-3.837,3.837-10.052,0-13.889l-8.964-8.965c-3.837-3.836-10.052-3.836-13.889,0     c-3.837,3.837-3.837,10.051,0,13.889l8.965,8.965C337.229,278.128,343.441,278.128,347.278,274.292z"></path>		</g>	</g></g></svg>