<svg id="Layer_1" enable-background="new 0 0 66 66" viewBox="0 0 66 66" xmlns="http://www.w3.org/2000/svg"><g><path d="m8.1 12.7-1.2 3.8c-.2.6 0 1.3.5 1.6s1.2.4 1.7 0l3.2-2.3 3.2 2.3c.5.4 1.2.4 1.7 0s.7-1 .5-1.6l-1.2-3.8 3.2-2.3c.5-.4.7-1 .5-1.6s-.8-1-1.4-1h-4l-1.2-3.8c-.2-.6-.8-1-1.4-1s-1.2.4-1.4 1l-1.1 3.7h-4c-.6 0-1.2.4-1.4 1s0 1.3.5 1.6z"/><path d="m49.6 12.7-1.2 3.8c-.2.6 0 1.3.5 1.6.5.4 1.2.4 1.7 0l3.2-2.3 3.2 2.3c.5.4 1.2.4 1.7 0s.7-1 .5-1.6l-1.2-3.8 3.2-2.3c.5-.4.7-1 .5-1.6s-.8-1-1.4-1h-4l-1.2-3.8c-.2-.6-.8-1-1.4-1s-1.2.4-1.4 1l-1.2 3.8h-4c-.6 0-1.2.4-1.4 1s0 1.3.5 1.6z"/><path d="m42.3 36.6c.7-.5 1-1.3.7-2.1l-2.7-8.3 7.1-5.1c.7-.5 1-1.3.7-2.2-.3-.8-1-1.3-1.8-1.3l-8.7.1-2.7-8.3c-.3-.8-1-1.3-1.8-1.3s-1.6.5-1.8 1.3l-2.6 8.3h-8.8c-.9 0-1.6.5-1.8 1.3s0 1.7.7 2.2l7.1 5.1-2.9 8.1c-.3.8 0 1.6.7 2.1s1.6.5 2.3 0l7-5.1 7.1 5.1c.7.6 1.5.5 2.2.1z"/><path d="m10.1 53.5h16.3c-.1-4.6-1.5-.4-9.2-21.5-.5-1.7-2.3-2.7-4-2.2-1.8.5-2.9 2.4-2.3 4.3l2.5 7.5c.1.5-.1 1-.6 1.1s-.8-.1-1-.4l-1.8-3.4c-2.3-4.2-3.4-18-3.5-19 .1-1.7-1.2-2.7-2.5-2.9-1.3-.1-2.8.6-3 2.5-.9 26.7 6 28.5 8.9 34z"/><path d="m59.4 19.9c-.1 1.1-1.2 14.8-3.5 19l-1.8 3.4c-.3.6-.9.4-1.1.4-.2-.1-.7-.4-.5-1.1l2.5-7.5c.6-1.8-.5-3.8-2.3-4.3-1.7-.4-3.5.5-4 2.2-7.5 20.7-9.1 17.1-9.2 21.5h16.3.3c5.8-11.3 9.8-10 8.8-34.1-.2-1.7-1.7-2.5-3-2.4s-2.6 1.2-2.5 2.9z"/><path d="m55.8 55.5h-17.3c-.5 0-1 .5-1 1v5.5c0 .5.5 1 1 1h17.4c.5 0 1-.5 1-1v-5.5c-.1-.5-.5-1-1.1-1z"/><path d="m27.5 55.5h-17.4c-.6 0-1 .5-1 1v5.5c0 .5.4 1 1 1h17.3c.5 0 1-.5 1-1v-5.5c.1-.5-.4-1-.9-1z"/></g></svg>