<?xml version="1.0"?>
<svg xmlns="http://www.w3.org/2000/svg" data-name="Layer 1" id="Layer_1" viewBox="0 0 128 128"><title/><path d="M74,87A19,19,0,1,0,93,68,19.02157,19.02157,0,0,0,74,87Zm34,0A15,15,0,1,1,93,72,15.01672,15.01672,0,0,1,108,87Z"/><path d="M86.62891,84.24457a1.99982,1.99982,0,0,0-3.25781,2.32031l3.98438,5.59528a2.02046,2.02046,0,0,0,2.7373.50446l12.01562-8a1.99987,1.99987,0,1,0-2.2168-3.32922L89.48926,88.26117Z"/><path d="M22,128H96a6.00656,6.00656,0,0,0,6-6V108.16443a23.00035,23.00035,0,0,1-15.78369.8136A1.94892,1.94892,0,0,1,86,109H32a2,2,0,0,1,0-4H78.707l.002.00146a23.193,23.193,0,0,1-3.94153-4.00439l.002.00293H32a2,2,0,0,1,0-4H72.29065A22.8335,22.8335,0,0,1,70.798,92.99646L70.79877,93H32a2,2,0,0,1,0-4H70.09241C70.03528,88.34027,70,87.67432,70,87s.03528-1.34027.09241-2H32a2,2,0,0,1,0-4H70.79877l-.00079.00354A22.8335,22.8335,0,0,1,72.29065,77H32a2,2,0,0,1,0-4H74.76947l-.002.00293A23.193,23.193,0,0,1,78.709,68.99854L78.707,69H32a2,2,0,0,1,0-4H86a1.985,1.985,0,0,1,.21649.02191A23.00039,23.00039,0,0,1,102,65.83557V6a6.00656,6.00656,0,0,0-6-6H22a6.00656,6.00656,0,0,0-6,6V122A6.00656,6.00656,0,0,0,22,128ZM30.48627,25.69287C31.00391,25.09277,43.35352,11,59,11S86.99609,25.09277,87.51367,25.69287a1.9997,1.9997,0,0,1,0,2.6142C86.99609,28.90717,74.64648,43,59,43S31.00391,28.90717,30.48627,28.30707A1.99984,1.99984,0,0,1,30.48627,25.69287ZM32,49H86a2,2,0,0,1,0,4H32a2,2,0,0,1,0-4Zm0,8H86a2,2,0,0,1,0,4H32a2,2,0,0,1,0-4Zm0,56H86a2,2,0,0,1,0,4H32a2,2,0,0,1,0-4Z"/><path d="M59,35a7.97639,7.97639,0,0,0,7.948-8.886,5.89169,5.89169,0,0,1-4.38672,2.66962A3.98942,3.98942,0,1,1,56.22961,24.126a5.89084,5.89084,0,0,1,1.23688-4.97485A7.99848,7.99848,0,0,0,59,35Z"/><circle cx="62" cy="22.91675" r="2"/><path d="M43,26.99951A16,16,0,1,0,59,11,16.01844,16.01844,0,0,0,43,26.99951ZM59,15A12,12,0,1,1,47,26.99951,12.013,12.013,0,0,1,59,15Z"/></svg>
