<svg clip-rule="evenodd" fill-rule="evenodd" height="1.707in" image-rendering="optimizeQuality" shape-rendering="geometricPrecision" text-rendering="geometricPrecision" viewBox="0 0 1707 1707" width="1.707in" xmlns="http://www.w3.org/2000/svg"><g id="Layer_x0020_1"><path d="m833 1231c-67-3-130-25-183-59 0-24 0-53 0-57 0-15-1-32-1-49 0-36 77-78 127-78h6l51 77zm40-166 52-77h5c48 0 120 40 128 80 1 16-1 34-1 49v55c-53 34-116 56-184 59zm-60-103v-37c13 5 26 7 40 7s28-2 41-7v37l-41 61zm-6-84c-2-1-3-2-5-3-28-20-47-57-47-99 0-5 0-11 1-18 23-5 66-19 117-53 14 13 49 40 78 50 0 7 1 15 1 21 0 42-19 79-48 99-1 1-3 2-4 3-14 9-30 14-47 14s-32-5-46-14zm-34 25v44c-60 3-164 52-164 119v49 27c-82-70-134-173-134-289 0-208 170-378 378-378 209 0 379 170 379 378 0 116-52 219-134 289v-26-50c-1-62-105-115-164-119v-44c35-28 58-75 58-127 0-11 1-25 0-36 11-53 3-104 1-109-35-80-115-83-186-72-101 11-108 104-92 185-1 10 0 22 0 32 0 52 23 99 58 127zm85-310c-90 0-120 30-107 125 92-25 115-75 138-52 17 17 46 40 66 49 4-33 1-62 0-70-16-34-48-52-97-52z"/><path d="m1323 703c-32 0-58-26-58-58v-149c0-22-19-41-42-41h-169c-76 0-76-116 0-116h169c87 0 158 70 158 157v149c0 32-26 58-58 58z"/><path d="m384 703c-32 0-58-26-58-58v-149c0-87 70-157 157-157h169c77 0 77 116 0 116h-169c-23 0-41 19-41 41v149c0 32-26 58-58 58z"/><path d="m1223 1368h-169c-76 0-76-116 0-116h169c23 0 42-19 42-42v-149c0-76 116-76 116 0v149c0 87-71 158-158 158z"/><path d="m652 1368h-169c-87 0-157-71-157-158v-149c0-76 116-76 116 0v149c0 23 18 42 41 42h169c77 0 77 116 0 116z"/><path d="m853 429c-6 0-12-2-15-7l-95-119c-10-13-1-32 16-32h36v-212c0-77 117-77 117 0v212c24 0 46-5 54 11 3 7 2 15-3 21l-94 119c-4 5-10 7-16 7z"/><path d="m1416 968c-4 0-9-2-12-5l-119-94c-10-8-10-23 0-31l119-95c13-10 32-1 32 16v36h212c77 0 77 117 0 117h-212c0 23 6 56-20 56z"/><path d="m853 1707c-32 0-58-27-58-59v-212c-24 0-47 5-54-11-3-7-3-15 2-21l95-119c7-10 23-10 31 0l93 117c14 15 2 34-14 34h-36v212c0 32-26 59-59 59z"/><path d="m291 968c-26 0-20-33-20-56h-212c-77 0-77-117 0-117h212c0-25-5-47 11-54 7-4 15-3 21 2l119 95c10 8 10 23 0 31l-119 94c-4 3-8 5-12 5z"/></g></svg>