<?xml version="1.0"?>
<svg xmlns="http://www.w3.org/2000/svg" id="Layer_1" data-name="Layer 1" viewBox="0 0 512 512" width="512" height="512"><title>Ratings 3 stras location pin</title><path d="M196.048,79.116a6,6,0,0,0,4.844,4.083l34.361,4.994,15.366,31.136a6,6,0,0,0,10.762,0l15.366-31.136L311.108,83.2a6,6,0,0,0,3.327-10.234L289.57,48.729l5.87-34.223a6,6,0,0,0-8.706-6.325L256,24.339,225.266,8.181a6,6,0,0,0-8.706,6.325l5.87,34.223L197.565,72.965A6,6,0,0,0,196.048,79.116Z"/><path d="M113.162,177.557a6,6,0,0,0,5.381-3.345l15.366-31.137,34.362-4.993a6,6,0,0,0,3.326-10.234l-24.865-24.237L152.6,69.389a6,6,0,0,0-8.707-6.325L113.162,79.222,82.429,63.064a6,6,0,0,0-8.706,6.325l5.869,34.222L54.728,127.848a6,6,0,0,0,3.326,10.234l34.361,4.993,15.366,31.137A6,6,0,0,0,113.162,177.557Z"/><path d="M432.408,103.611l5.869-34.222a6,6,0,0,0-8.706-6.325L398.838,79.222,368.1,63.064a6,6,0,0,0-8.707,6.325l5.871,34.222L340.4,127.848a6,6,0,0,0,3.326,10.234l34.362,4.993,15.366,31.137a6,6,0,0,0,10.762,0l15.366-31.137,34.361-4.993a6,6,0,0,0,3.326-10.234Z"/><path d="M255.6,310.325c.159,0,.32,0,.48,0a42.79,42.79,0,0,0,30.516-12.8,46.024,46.024,0,0,0,.7-63.818,42.789,42.789,0,0,0-30.709-13.476c-.159,0-.32,0-.48,0a42.794,42.794,0,0,0-30.516,12.8,46.025,46.025,0,0,0-.7,63.819A42.791,42.791,0,0,0,255.6,310.325Z"/><path d="M134.351,264.931a120.274,120.274,0,0,0,6.714,49.582c5.574,15.81,14.755,30.748,27.291,44.4l81.36,88.594a6,6,0,0,0,4.352,1.941h.067a6,6,0,0,0,4.329-1.845l83.289-86.782c12.834-13.371,22.342-28.1,28.261-43.787a120.273,120.273,0,0,0,7.805-49.422A127.513,127.513,0,0,0,341.9,185.663a119.911,119.911,0,0,0-169.83-1.869A127.521,127.521,0,0,0,134.351,264.931Zm82.739-40.366a54.8,54.8,0,0,1,78.9.868,58.021,58.021,0,0,1-.886,80.561,54.7,54.7,0,0,1-39.017,16.334c-.206,0-.41,0-.617,0a54.7,54.7,0,0,1-39.265-17.2,58.023,58.023,0,0,1,.887-80.561Z"/><path d="M392.2,428.687c-14.111-6.608-34.1-12.088-57.8-15.851a6,6,0,1,0-1.881,11.852c49.8,7.905,72.483,21.636,72.483,31.048,0,.035,0,.07,0,.1.037,2.175-1.182,4.536-3.622,7.019-4.571,4.651-17.356,13.544-51.627,20.858-26.953,5.752-59.3,8.792-93.547,8.792-92.441,0-149.2-21.418-149.2-36.773,0-9.306,22.112-22.978,70.661-31.006a6,6,0,1,0-1.957-11.839c-23.208,3.838-42.728,9.33-56.452,15.882C103.159,436.458,95,445.529,95,455.736c0,14.577,17.266,27.036,49.93,36.031,29.839,8.216,69.356,12.742,111.273,12.742,72.411,0,134.192-13.358,153.732-33.238,4.766-4.849,7.142-10.092,7.063-15.586C416.971,445.461,408.627,436.378,392.2,428.687Z"/></svg>
