<svg xmlns="http://www.w3.org/2000/svg" xmlns:xlink="http://www.w3.org/1999/xlink" id="Layer_2" x="0px" y="0px" width="800px" height="1200px" viewBox="0 0 800 1200" xml:space="preserve"><g id="Layer_1-2">	<g>		<path fill="#FD5E00" d="M800,884.827c0-62.635-123.866-115.442-292.656-131.426L400,879.428L293.413,753.294    C124.298,769.168,0.108,822.084,0.108,884.827c0,75.378,179.05,136.394,400,136.394c220.95,0,400-61.016,400-136.394H800z"></path>		<path d="M400,542.278c-60.367,0-109.395-49.028-109.395-109.396c0-60.367,49.028-109.395,109.395-109.395    s109.396,49.136,109.396,109.395C509.396,493.143,460.259,542.278,400,542.278z M400,345.086    c-48.38,0-87.797,39.417-87.797,87.796c0,48.381,39.417,87.798,87.797,87.798s87.797-39.417,87.797-87.798    C487.797,384.503,448.38,345.086,400,345.086z"></path>		<path d="M399.892,900.486l-7.775-8.208c-0.647-0.647-62.095-65.874-122.678-154.211    c-81.965-119.438-123.542-222.139-123.542-305.184C145.896,292.71,259.935,178.78,400,178.78    c140.064,0,254.104,113.931,254.104,254.104c0,84.341-41.576,187.364-123.542,306.371    c-60.583,87.905-122.138,152.483-122.678,153.023L400,900.486H399.892z M399.892,200.378    c-128.186,0-232.505,104.32-232.505,232.506c0,168.898,191.145,390.173,232.505,436.068    c41.361-45.464,232.397-264.578,232.397-436.068c0-128.186-104.319-232.506-232.505-232.506H399.892z"></path>	</g></g></svg>