<svg xmlns="http://www.w3.org/2000/svg" xmlns:xlink="http://www.w3.org/1999/xlink" id="Layer_1" x="0px" y="0px" width="434.333px" height="159.697px" viewBox="0 0 434.333 159.697" xml:space="preserve"><g>	<path fill="#FFFFFF" d="M430.391,40.636c-1.449,0.052-3.24,0.244-5.383,0.58c-2.141,0.336-3.963,0.762-5.461,1.276   c-1.754,0.62-2.939,1.654-3.559,3.098s-0.93,3.019-0.93,4.724v65.116c0,3.407-0.686,7.023-2.051,10.842   c-1.371,3.818-3.369,7.226-6,10.22c-3.047,3.509-6.672,6.244-10.881,8.207c-4.207,1.961-9.02,2.941-14.44,2.941   c-8.413,0-15.241-2.361-20.48-7.086c-5.237-4.721-7.857-11.082-7.857-19.083c0-3.509,0.903-6.621,2.712-9.329   c1.803-2.711,4.436-4.065,7.895-4.065c3.098,0,5.586,0.862,7.473,2.593c1.884,1.73,2.824,4.015,2.824,6.853   c0,1.654-0.336,3.305-1.003,4.954c-0.672,1.653-1.421,3.125-2.246,4.415c-0.776,1.19-1.655,2.582-2.634,4.179   c-0.983,1.602-1.679,3.047-2.09,4.337c1.083,1.703,2.772,3.203,5.07,4.492c2.297,1.291,5.382,1.936,9.254,1.936   c3.765,0,6.849-0.863,9.251-2.594c2.4-1.727,4.195-4.038,5.383-6.929c1.133-2.685,1.945-5.989,2.439-9.91   c0.488-3.923,0.734-8.313,0.734-13.164V51.089c0-1.806-0.299-3.316-0.891-4.529c-0.594-1.213-1.822-2.287-3.678-3.214   c-1.602-0.825-3.598-1.458-6-1.898c-2.4-0.438-4.375-0.707-5.925-0.812v-5.498h48.473V40.636z"></path>	<path fill="#FFFFFF" d="M394.695,153.697c-0.148-2.324-1.459-4.463-2.727-6.531c-0.256-0.42-0.521-0.855-0.777-1.285   c-1.051-1.789-1.953-3.688-2.684-5.637c-0.732-1.963-1.297-3.986-1.676-6.023c-0.775-4.221-0.766-8.399,0.039-12.419   c1.682-8.413,6.939-15.841,14.066-19.866c1.661-0.94,3.426-1.709,5.137-2.45c2.785-1.209,5.412-2.354,7.658-4.17   c3.393-2.749,5.533-6.954,5.734-11.25c0.201-4.377-1.594-8.717-4.797-11.613c-1.688-1.525-3.67-2.612-5.768-3.759   c-0.916-0.503-1.865-1.021-2.777-1.576c-5.868-3.573-10.356-8.781-12.637-14.666c-1.189-3.071-1.779-6.428-1.703-9.706   c0.041-1.667,0.25-3.316,0.623-4.9c0.385-1.63,0.943-3.198,1.666-4.655c1.895-3.831,4.928-7.196,9.276-10.294   c3.795-2.705,8.158-4.897,12.307-6.908l0.625,1.287c-8.834,4.292-17.083,8.788-20.92,16.551   c-2.652,5.359-2.854,12.131-0.535,18.108c2.166,5.591,6.444,10.55,12.045,13.958c0.883,0.538,1.816,1.048,2.719,1.544   c2.08,1.137,4.232,2.315,6.045,3.954c1.727,1.557,3.121,3.56,4.037,5.789c0.91,2.213,1.332,4.618,1.225,6.953   c-0.215,4.696-2.555,9.294-6.26,12.296c-2.398,1.945-5.24,3.179-7.99,4.374c-1.678,0.729-3.412,1.479-5.002,2.381   c-6.77,3.826-11.764,10.894-13.37,18.898c-1.518,7.591-0.006,15.997,4.154,23.073c0.244,0.418,0.506,0.848,0.762,1.264   c1.359,2.217,2.764,4.512,2.934,7.188L394.695,153.697z"></path>	<rect x="398.447" y="92.139" fill="#FFFFFF" width="16.569" height="24.563"></rect>	<path fill="#FFFFFF" d="M395.373,32.006L395.373,32.006c-4.645,0-8.412-3.767-8.412-8.412   C391.607,23.595,395.373,27.362,395.373,32.006"></path>	<path fill="#FFFFFF" d="M400.289,25.593L400.289,25.593c-3.729-2.771-4.508-8.037-1.738-11.768   C402.281,16.595,403.057,21.864,400.289,25.593"></path>	<path fill="#FFFFFF" d="M409.191,19.559L409.191,19.559c-2.324-4.022-0.945-9.166,3.078-11.487   C414.594,12.094,413.215,17.237,409.191,19.559"></path>	<path fill="#FFFFFF" d="M398.777,28.015L398.777,28.015c3.665-2.85,8.95-2.185,11.799,1.48   C406.908,32.347,401.625,31.683,398.777,28.015"></path>	<path fill="#FFFFFF" d="M406.828,21.399L406.828,21.399c4.264-1.841,9.213,0.127,11.055,4.392   C413.615,27.632,408.668,25.665,406.828,21.399"></path>	<path fill="#FFFFFF" d="M415.428,16.75L415.428,16.75c4.266-1.841,9.215,0.126,11.055,4.391   C422.219,22.979,417.27,21.014,415.428,16.75"></path>	<polygon fill="#FFFFFF" points="392.207,35.16 395.798,35.254 393.843,43.346 390.89,42.157  "></polygon>	<path fill="#FFFFFF" d="M91.97,86.106c-2.228,7.032-5.57,12.325-11.56,12.325H68.501V78.166h0.903c5.992,0,9.891,0,10.517,8.706   h1.881V66.675h-1.881c-0.626,8.707-4.525,8.707-10.517,8.707h-0.903V55.185h9.402c5.99,0,9.402,5.291,11.63,12.258h2.16   l-1.115-15.046H50.184v1.951c5.293,0,6.546,3.622,6.546,8.01v28.902c0,4.388-1.252,8.01-6.546,8.01v1.881h42.902L94.2,86.106H91.97   z"></path>	<path fill="#FFFFFF" d="M35.521,52.398v1.951c5.293,0,6.965,2.019,6.965,8.009v19.848L18.527,52.398H0v1.951   c5.293,0,6.129,3.621,6.129,8.009v28.904c0,5.917-0.836,8.008-6.129,8.008v1.881h15.88v-1.881c-5.293,0-6.965-2.091-6.965-8.008   V60.686l32.035,40.466h4.251V62.358c0-5.99,0.836-8.009,6.199-8.009v-1.951H35.521z"></path>	<path fill="#FFFFFF" d="M362.337,52.398v1.951c5.296,0,6.965,2.019,6.965,8.009v19.848l-23.958-29.808h-18.527v1.951   c5.297,0,6.13,3.621,6.13,8.009v28.904c0,5.917-0.833,8.008-6.13,8.008v1.881h15.881v-1.881c-5.293,0-6.965-2.091-6.965-8.008   V60.686l32.038,40.466h4.248V62.358c0-5.99,0.836-8.009,6.199-8.009v-1.951H362.337z"></path>	<path fill="#FFFFFF" d="M234.089,51.179c-15.042,0-25.699,10.795-25.699,25.004c0,14.277,10.657,25.003,25.699,25.003   s25.632-10.727,25.632-25.003C259.721,61.974,249.131,51.179,234.089,51.179 M234.089,98.609c-7.94,0-13.164-8.849-13.164-22.426   c0-13.513,5.224-22.356,13.164-22.356c7.938,0,13.092,8.843,13.092,22.356C247.181,89.761,242.026,98.609,234.089,98.609z"></path>	<path fill="#FFFFFF" d="M209.529,52.397h-44.434l-1.115,15.045h2.228c2.16-6.966,5.573-12.257,11.563-12.257h3.622v36.076   c0,4.388-1.252,8.01-6.546,8.01v1.881h24.863v-1.881c-5.291,0-6.479-3.622-6.479-8.01V55.185h3.623   c5.989,0,9.332,5.291,11.563,12.257h2.228L209.529,52.397z"></path>	<path fill="#FFFFFF" d="M150.295,52.397v1.951c5.296,0,7.314,2.161,5.573,8.01l-8.706,23.681l-9.821-23.681   c-2.155-5.503-1.322-8.01,3.971-8.01v-1.951h-24.03v1.951c4.877,0,5.922,3.552,8.01,8.01l1.602,3.83l-7.102,19.708l-10.028-23.538   c-2.16-5.503-1.534-8.01,3.829-8.01v-1.951H89.495v1.951c4.667,0,6.06,3.552,8.15,8.01l16.367,38.793h3.343l11.143-31.063   l12.745,31.063h3.343l14.349-38.793c1.668-4.249,3.27-8.01,8.563-8.01v-1.951H150.295z"></path>	<path fill="#FFFFFF" d="M310.619,52.397v1.951c5.294,0,7.314,2.161,5.573,8.01l-8.706,23.681l-9.821-23.681   c-2.158-5.503-1.325-8.01,3.972-8.01v-1.951h-24.031v1.951c4.878,0,5.923,3.552,8.011,8.01l1.602,3.83l-7.104,19.708   l-10.025-23.538c-2.161-5.503-1.535-8.01,3.829-8.01v-1.951h-24.098v1.951c4.664,0,6.059,3.552,8.146,8.01l16.37,38.793h3.343   l11.141-31.063l12.744,31.063h3.343l14.347-38.793c1.674-4.249,3.275-8.01,8.569-8.01v-1.951H310.619z"></path></g></svg>